<?xml version="1.0" encoding="UTF-8"?>
<svg width="20px" height="20px" viewBox="0 0 20 20" version="1.1" xmlns="http://www.w3.org/2000/svg" xmlns:xlink="http://www.w3.org/1999/xlink">
    <title>切片</title>
    <g id="DO-IT" stroke="none" stroke-width="1" fill="none" fill-rule="evenodd">
        <g id="DOIT视觉规范" transform="translate(-310.000000, -724.000000)">
            <g id="doit-icon-bonus" transform="translate(310.000000, 724.000000)">
                <rect id="矩形" fill-opacity="0" fill="#FFFFFF" x="0" y="0" width="20" height="20"></rect>
                <path d="M5,3 L15,3 C15.5522847,3 16,3.44771525 16,4 L16,16 C16,16.5522847 15.5522847,17 15,17 L5,17 C4.44771525,17 4,16.5522847 4,16 L4,4 C4,3.44771525 4.44771525,3 5,3 Z" id="矩形" fill="#B8BBCC"></path>
                <polygon id="路径" fill="#F7F7FA" fill-rule="nonzero" points="7.6 3 7.6 17 6 17 6 3"></polygon>
                <path d="M10,13 L14,13 L14,15.190983 C14,15.4671254 13.7761424,15.690983 13.5,15.690983 C13.4223775,15.690983 13.3458209,15.6729105 13.2763932,15.6381966 L12.2236068,15.1118034 C12.0828431,15.0414215 11.9171569,15.0414215 11.7763932,15.1118034 L10.7236068,15.6381966 C10.4766175,15.7616912 10.176281,15.6615791 10.0527864,15.4145898 C10.0180725,15.3451621 10,15.2686056 10,15.190983 L10,13 L10,13 Z" id="矩形" fill="#3A36EE"></path>
                <path d="M14,12.85 L10,12.85 L9.85,13 L9.85,15.190983 C9.85,15.2918923 9.87349431,15.3914158 9.91862233,15.4816718 C10.0791653,15.8027579 10.4696028,15.9329037 10.7906888,15.7723607 L11.8434752,15.2459675 C11.9420099,15.1967002 12.0579901,15.1967002 12.1565248,15.2459675 L13.2093112,15.7723607 C13.2995672,15.8174887 13.3990907,15.840983 13.5,15.840983 C13.8589851,15.840983 14.15,15.5499681 14.15,15.190983 L14.15,13 L14,12.85 Z M13.85,13.15 L13.85,15.190983 C13.85,15.3842827 13.6932997,15.540983 13.5,15.540983 C13.4456642,15.540983 13.3920746,15.5283322 13.3434752,15.5040325 L12.2906888,14.9776393 C12.107696,14.8861429 11.892304,14.8861429 11.7093112,14.9776393 L10.6565248,15.5040325 C10.4836323,15.5904788 10.2733967,15.5204002 10.1869505,15.3475078 L10.1665709,15.2974022 C10.1556226,15.2630991 10.15,15.2272069 10.15,15.190983 L10.15,13.15 L13.85,13.15 Z" id="矩形" fill="#F7F7FA" fill-rule="nonzero"></path>
                <circle id="椭圆形" fill="#3A36EE" cx="12" cy="11" r="3"></circle>
                <path d="M12,7.7 C10.1774603,7.7 8.7,9.17746033 8.7,11 C8.7,12.8225397 10.1774603,14.3 12,14.3 C13.8225397,14.3 15.3,12.8225397 15.3,11 C15.3,9.17746033 13.8225397,7.7 12,7.7 Z M12,8 C13.6568542,8 15,9.34314575 15,11 C15,12.6568542 13.6568542,14 12,14 C10.3431458,14 9,12.6568542 9,11 C9,9.34314575 10.3431458,8 12,8 Z" id="椭圆形" fill="#F7F7FA" fill-rule="nonzero"></path>
                <g id="金" transform="translate(10.368000, 8.720000)" fill="#F7F7FA" fill-rule="nonzero" stroke="#3A36EE" stroke-width="0.05">
                    <path d="M2.54577398,1.26406405 L1.86912032,1.67834181 L2.9099228,2.06051147 L1.837,2.43771089 L1.837,3.26363482 L3.38603271,3.30348132 L-0.108050928,3.74514919 L1.43091627,3.30121635 L1.42711086,2.445 L0.281511239,2.445 L1.39550663,2.053361 L0.804944717,1.67313621 L2.54577398,1.26406405 Z M0.428396723,2.71646701 C0.692882708,2.50519122 0.722818623,2.54932848 0.760632024,2.58133517 L1.16567767,2.94232233 C1.21087698,2.98752165 1.233,3.03887075 1.233,3.096 C1.233,3.1537037 1.21313204,3.2022233 1.17367767,3.24167767 C1.1342233,3.28113204 1.0857037,3.301 1.028,3.301 C0.976567515,3.301 0.931183249,3.28436542 0.891367976,3.25066483 L0.48632233,2.88967767 C0.419,2.73188547 0.419114754,2.72780092 0.419363322,2.72371009 C0.422334734,2.72131848 0.425345707,2.71890421 0.428396723,2.71646701 Z M1.48621804,0.0344272397 C2.03859834,0.379687791 2.26089911,0.559254398 2.48920348,0.734154238 C2.71682579,0.908531561 2.95443204,1.07958034 3.2020212,1.24730203 C2.48691465,1.2504754 2.01612245,0.899718585 1.57708853,0.525795517 C1.3817024,0.71520493 1.17936063,0.89765871 0.970063053,1.07315668 C0.754765728,1.25368549 0.529439526,1.42418561 0.294083421,1.58465568 C0.310781841,1.07821549 0.560692228,0.883460254 0.799659503,0.677079425 C1.03383477,0.474837151 1.26268713,0.260619236 1.48621804,0.0344272397 Z" id="形状"></path>
                </g>
            </g>
        </g>
    </g>
</svg>