<?xml version="1.0" encoding="UTF-8"?>
<svg width="20px" height="20px" viewBox="0 0 20 20" version="1.1" xmlns="http://www.w3.org/2000/svg" xmlns:xlink="http://www.w3.org/1999/xlink">
    <title>切片</title>
    <g id="DO-IT" stroke="none" stroke-width="1" fill="none" fill-rule="evenodd">
        <g id="DOIT视觉规范" transform="translate(-90.000000, -788.000000)">
            <g id="doit-icon-financing" transform="translate(90.000000, 788.000000)">
                <rect id="矩形" fill-opacity="0" fill="#FFFFFF" x="0" y="0" width="20" height="20"></rect>
                <path d="M5,4 L15,4 C16.6568542,4 18,5.34314575 18,7 L18,13 C18,14.6568542 16.6568542,16 15,16 L5,16 C3.34314575,16 2,14.6568542 2,13 L2,7 C2,5.34314575 3.34314575,4 5,4 Z" id="矩形" fill="#B8BBCC"></path>
                <path d="M14.4343146,6.43431458 C14.746734,6.12189514 15.253266,6.12189514 15.5656854,6.43431458 C15.8781049,6.74673401 15.8781049,7.25326599 15.5656854,7.56568542 L10.5656854,12.5656854 C10.253266,12.8781049 9.74673401,12.8781049 9.43431458,12.5656854 L8,11.131 L5.56568542,13.5656854 C5.28166776,13.8497031 4.8372265,13.8755229 4.5240409,13.6431448 L4.43431458,13.5656854 C4.12189514,13.253266 4.12189514,12.746734 4.43431458,12.4343146 L7.43431458,9.43431458 C7.74673401,9.12189514 8.25326599,9.12189514 8.56568542,9.43431458 L10,10.869 L14.4343146,6.43431458 Z" id="路径" fill="#F7F7FA" fill-rule="nonzero"></path>
                <path d="M15,6.2 C15.4418278,6.2 15.8,6.5581722 15.8,7 L15.8,10 C15.8,10.4418278 15.4418278,10.8 15,10.8 C14.5581722,10.8 14.2,10.4418278 14.2,10 L14.2,7.8 L12,7.8 C11.592159,7.8 11.2555984,7.49481185 11.2062331,7.1003503 L11.2,7 C11.2,6.5581722 11.5581722,6.2 12,6.2 L15,6.2 Z" id="路径" fill="#3A36EE" fill-rule="nonzero"></path>
            </g>
        </g>
    </g>
</svg>