<?xml version="1.0" encoding="UTF-8"?>
<svg width="20px" height="20px" viewBox="0 0 20 20" version="1.1" xmlns="http://www.w3.org/2000/svg" xmlns:xlink="http://www.w3.org/1999/xlink">
    <title>切片</title>
    <g id="DO-IT" stroke="none" stroke-width="1" fill="none" fill-rule="evenodd">
        <g id="DOIT视觉规范" transform="translate(-310.000000, -756.000000)">
            <g id="doit-icon-food" transform="translate(310.000000, 756.000000)">
                <rect id="矩形" fill-opacity="0" fill="#FFFFFF" x="0" y="0" width="20" height="20"></rect>
                <path d="M18,13.7 L8,13.7 C7.83431458,13.7 7.7,13.8343146 7.7,14 C7.7,15.2702549 8.72974508,16.3 10,16.3 L16,16.3 C17.2702549,16.3 18.3,15.2702549 18.3,14 C18.3,13.8343146 18.1656854,13.7 18,13.7 Z" id="路径" fill="#B8BBCC" fill-rule="nonzero"></path>
                <path d="M7,3.7 L2,3.7 C1.82613213,3.7 1.68867562,3.84733314 1.70072077,4.02078328 L2.53405411,16.0207833 C2.54497362,16.1780242 2.67571369,16.3 2.83333333,16.3 L6.16666667,16.3 C6.32428631,16.3 6.45502638,16.1780242 6.46594589,16.0207833 L7.29927923,4.02078328 C7.31132438,3.84733314 7.17386787,3.7 7,3.7 Z" id="路径" fill="#B8BBCC" fill-rule="nonzero"></path>
                <circle id="椭圆形" fill="#F7F7FA" cx="4.5" cy="9.5" r="1.5"></circle>
                <path d="M17,9.7 L9,9.7 C8.28202983,9.7 7.7,10.2820298 7.7,11 L7.7,12 C7.7,12.7179702 8.28202983,13.3 9,13.3 L17,13.3 C17.7179702,13.3 18.3,12.7179702 18.3,12 L18.3,11 C18.3,10.2820298 17.7179702,9.7 17,9.7 Z" id="路径" fill="#B8BBCC" fill-rule="nonzero"></path>
                <path d="M14,4.7 L12,4.7 C9.62517558,4.7 7.7,6.62517558 7.7,9 C7.7,9.16568542 7.83431458,9.3 8,9.3 L18,9.3 C18.168565,9.3 18.3040419,9.16116033 18.3000019,8.99264602 L18.2950145,8.79300568 C18.1825087,6.50224161 16.2949385,4.7 14,4.7 Z" id="路径" fill="#B8BBCC" fill-rule="nonzero"></path>
                <path d="M14,10.2 C14.6208388,10.2 14.9839898,10.3840266 15.4292908,10.8018905 L15.7129527,11.0763851 C15.8333702,11.1846281 15.887192,11.2 16,11.2 C16.4310369,11.2 16.9062214,10.9624077 17.4343146,10.4343146 C17.746734,10.1218951 18.253266,10.1218951 18.5656854,10.4343146 C18.8781049,10.746734 18.8781049,11.253266 18.5656854,11.5656854 C17.7604452,12.3709256 16.9022965,12.8 16,12.8 C15.3791612,12.8 15.0160102,12.6159734 14.5707092,12.1981095 L14.4343146,12.0656854 C14.2257516,11.8571225 14.1648099,11.8101293 14.0520699,11.8016398 L14,11.8 C13.887192,11.8 13.8333702,11.8153719 13.7129527,11.9236149 L13.5656854,12.0656854 C13.0540431,12.5773278 12.6829227,12.8 12,12.8 C11.3791612,12.8 11.0160102,12.6159734 10.5707092,12.1981095 L10.4343146,12.0656854 C10.1959569,11.8273278 10.1504106,11.8 10,11.8 C9.56896313,11.8 9.09377857,12.0375923 8.56568542,12.5656854 C8.25326599,12.8781049 7.74673401,12.8781049 7.43431458,12.5656854 C7.12189514,12.253266 7.12189514,11.746734 7.43431458,11.4343146 C8.23955476,10.6290744 9.09770354,10.2 10,10.2 C10.6208388,10.2 10.9839898,10.3840266 11.4292908,10.8018905 L11.7129527,11.0763851 C11.8133007,11.1665876 11.8674016,11.1922963 11.9479301,11.1983602 L12,11.2 C12.112808,11.2 12.1666298,11.1846281 12.2870473,11.0763851 L12.4343146,10.9343146 C12.9459569,10.4226722 13.3170773,10.2 14,10.2 Z" id="路径" fill="#3A36EE" fill-rule="nonzero"></path>
            </g>
        </g>
    </g>
</svg>