<?xml version="1.0" encoding="UTF-8"?>
<svg width="20px" height="20px" viewBox="0 0 20 20" version="1.1" xmlns="http://www.w3.org/2000/svg" xmlns:xlink="http://www.w3.org/1999/xlink">
    <title>切片</title>
    <g id="DO-IT" stroke="none" stroke-width="1" fill="none" fill-rule="evenodd">
        <g id="DOIT视觉规范" transform="translate(-134.000000, -719.000000)">
            <g id="doit-icon-travelling-expenses" transform="translate(134.000000, 719.000000)">
                <rect id="矩形" fill-opacity="0" fill="#FFFFFF" x="0" y="0" width="20" height="20"></rect>
                <path d="M3,5 L17,5 C18.1045695,5 19,5.8954305 19,7 L19,12 C19,13.1045695 18.1045695,14 17,14 L3,14 C1.8954305,14 1,13.1045695 1,12 L1,7 C1,5.8954305 1.8954305,5 3,5 Z" id="矩形" fill="#B8BBCC"></path>
                <path d="M4,12 C4.55228475,12 5,12.4477153 5,13 L5,13.5 C5,14.0522847 4.55228475,14.5 4,14.5 C3.44771525,14.5 3,14.0522847 3,13.5 L3,13 C3,12.4477153 3.44771525,12 4,12 Z" id="直线-10" fill="#B8BBCC" fill-rule="nonzero"></path>
                <path d="M15,12 C15.5522847,12 16,12.4477153 16,13 L16,13.5 C16,14.0522847 15.5522847,14.5 15,14.5 C14.4477153,14.5 14,14.0522847 14,13.5 L14,13 C14,12.4477153 14.4477153,12 15,12 Z" id="直线-10" fill="#B8BBCC" fill-rule="nonzero"></path>
                <path d="M3,6 L5,6 C5.55228475,6 6,6.44771525 6,7 L6,9.23795006 C6,9.47188657 5.91798378,9.69841946 5.76822128,9.87813446 L4.29984633,11.6401844 C4.10985251,11.868177 3.8284049,12 3.53162505,12 L3,12 C2.44771525,12 2,11.5522847 2,11 L2,7 C2,6.44771525 2.44771525,6 3,6 Z" id="矩形" fill="#3A36EE"></path>
                <path d="M9,6 L11,6 C11.5522847,6 12,6.44771525 12,7 L12,9 C12,9.55228475 11.5522847,10 11,10 L9,10 C8.44771525,10 8,9.55228475 8,9 L8,7 C8,6.44771525 8.44771525,6 9,6 Z" id="矩形" fill="#F7F7FA"></path>
                <path d="M14,6 L16,6 C16.5522847,6 17,6.44771525 17,7 L17,9 C17,9.55228475 16.5522847,10 16,10 L14,10 C13.4477153,10 13,9.55228475 13,9 L13,7 C13,6.44771525 13.4477153,6 14,6 Z" id="矩形" fill="#F7F7FA"></path>
            </g>
        </g>
    </g>
</svg>