<?xml version="1.0" encoding="UTF-8"?>
<svg width="20px" height="20px" viewBox="0 0 20 20" version="1.1" xmlns="http://www.w3.org/2000/svg" xmlns:xlink="http://www.w3.org/1999/xlink">
    <title>切片</title>
    <g id="DO-IT" stroke="none" stroke-width="1" fill="none" fill-rule="evenodd">
        <g id="DOIT视觉规范" transform="translate(-354.000000, -756.000000)">
            <g id="doit-icon-Medical-expenses" transform="translate(354.000000, 756.000000)">
                <rect id="矩形" fill-opacity="0" fill="#FFFFFF" x="0" y="0" width="20" height="20"></rect>
                <path d="M7,3 L13,3 C15.209139,3 17,4.790861 17,7 L17,13 C17,15.209139 15.209139,17 13,17 L7,17 C4.790861,17 3,15.209139 3,13 L3,7 C3,4.790861 4.790861,3 7,3 Z" id="矩形" fill="#B8BBCC"></path>
                <path d="M7.17157288,7.58578644 C7.95262146,6.80473785 9.21895142,6.80473785 10,7.58578644 L11.4142136,9 C12.1952621,9.78104858 12.1952621,11.0473785 11.4142136,11.8284271 L10.7071068,12.5355339 C10.3165825,12.9260582 9.68341751,12.9260582 9.29289322,12.5355339 L7.17157288,10.4142136 C6.39052429,9.63316498 6.39052429,8.36683502 7.17157288,7.58578644 Z" id="矩形" fill="#F7F7FA"></path>
                <path d="M12.8284271,7.58578644 C13.6094757,8.36683502 13.6094757,9.63316498 12.8284271,10.4142136 L10.7071068,12.5355339 C10.3165825,12.9260582 9.68341751,12.9260582 9.29289322,12.5355339 L8.58578644,11.8284271 C7.80473785,11.0473785 7.80473785,9.78104858 8.58578644,9 L10,7.58578644 C10.7810486,6.80473785 12.0473785,6.80473785 12.8284271,7.58578644 Z" id="矩形" fill="#3A36EE"></path>
            </g>
        </g>
    </g>
</svg>