<?xml version="1.0" encoding="UTF-8"?>
<svg width="18px" height="18px" viewBox="0 0 18 18" version="1.1" xmlns="http://www.w3.org/2000/svg" xmlns:xlink="http://www.w3.org/1999/xlink">
    <title>doit-label-date</title>
    <g id="DO-IT" stroke="none" stroke-width="1" fill="none" fill-rule="evenodd">
        <g id="DOIT视觉规范" transform="translate(-91.000000, -357.000000)">
            <g id="doit-label-date" transform="translate(91.000000, 357.000000)">
                <rect id="矩形" fill-opacity="0" fill="#FFFFFF" x="0" y="0" width="18" height="18"></rect>
                <path d="M6,2 L6,3 L6,3 L12,3 L12,2 C12,1.44771525 12.4477153,1 13,1 C13.5522847,1 14,1.44771525 14,2 L14,3 L14,3 L15,3 C16.6568542,3 18,4.34314575 18,6 L18,14 C18,15.6568542 16.6568542,17 15,17 L3,17 C1.34314575,17 -6.85272294e-16,15.6568542 0,14 L0,6 C-2.02906125e-16,4.34314575 1.34314575,3 3,3 L4,3 L4,3 L4,2 C4,1.44771525 4.44771525,1 5,1 C5.55228475,1 6,1.44771525 6,2 Z" id="路径" fill="#3A36EE"></path>
                <line x1="5" y1="7" x2="13" y2="7" id="直线" stroke="#FFFFFF" stroke-width="1.5" stroke-linecap="round" stroke-linejoin="round"></line>
            </g>
        </g>
    </g>
</svg>