<?xml version="1.0" encoding="UTF-8"?>
<svg width="18px" height="18px" viewBox="0 0 18 18" version="1.1" xmlns="http://www.w3.org/2000/svg" xmlns:xlink="http://www.w3.org/1999/xlink">
    <title>切片</title>
    <g id="DO-IT" stroke="none" stroke-width="1" fill="none" fill-rule="evenodd">
        <g id="DOIT视觉规范" transform="translate(-179.000000, -243.000000)">
            <g id="doit-label-healthy" transform="translate(179.000000, 243.000000)">
                <rect id="矩形" fill-opacity="0" fill="#D8D8D8" x="0" y="0" width="18" height="18"></rect>
                <path d="M3,7 L15,7 C15.5522847,7 16,7.44771525 16,8 L16,13 C16,14.1045695 15.1045695,15 14,15 L4,15 C2.8954305,15 2,14.1045695 2,13 L2,8 C2,7.44771525 2.44771525,7 3,7 Z" id="矩形" stroke="#FFFFFF" stroke-linecap="round" stroke-linejoin="round"></path>
                <line x1="9" y1="12" x2="9" y2="10" id="Stroke-5" stroke="#FFFFFF" stroke-linecap="round" stroke-linejoin="round"></line>
                <line x1="8" y1="11" x2="10" y2="11" id="Stroke-7" stroke="#FFFFFF" stroke-linecap="round" stroke-linejoin="round"></line>
                <line x1="13" y1="6" x2="13" y2="8" id="直线" stroke="#FFFFFF" stroke-linecap="round" stroke-linejoin="round"></line>
                <line x1="5" y1="6" x2="5" y2="8" id="直线" stroke="#FFFFFF" stroke-linecap="round" stroke-linejoin="round"></line>
                <path d="M3.5,4 L14.5,4 C15.3284271,4 16,4.67157288 16,5.5 L16,6 C16,6.55228475 15.5522847,7 15,7 L3,7 C2.44771525,7 2,6.55228475 2,6 L2,5.5 C2,4.67157288 2.67157288,4 3.5,4 Z" id="矩形" stroke="#FFFFFF" stroke-linecap="round" stroke-linejoin="round"></path>
                <line x1="6.5" y1="3.5" x2="11.5" y2="3.5" id="Stroke-9" stroke="#FFFFFF" stroke-linecap="round" stroke-linejoin="round"></line>
            </g>
        </g>
    </g>
</svg>