<?xml version="1.0" encoding="UTF-8"?>
<svg width="20px" height="20px" viewBox="0 0 20 20" version="1.1" xmlns="http://www.w3.org/2000/svg" xmlns:xlink="http://www.w3.org/1999/xlink">
    <title>切片</title>
    <g id="DO-IT" stroke="none" stroke-width="1" fill="none" fill-rule="evenodd">
        <g id="DOIT视觉规范" transform="translate(-178.000000, -242.000000)">
            <g id="doit-label-healthy" transform="translate(178.000000, 242.000000)">
                <rect id="矩形" fill-opacity="0" fill="#D8D8D8" x="0" y="0" width="20" height="20"></rect>
                <path d="M4,8 L16,8 C16.5522847,8 17,8.44771525 17,9 L17,14 C17,15.1045695 16.1045695,16 15,16 L5,16 C3.8954305,16 3,15.1045695 3,14 L3,9 C3,8.44771525 3.44771525,8 4,8 Z" id="矩形" stroke="#FFFFFF" stroke-width="1.5" stroke-linecap="round" stroke-linejoin="round"></path>
                <line x1="10" y1="13" x2="10" y2="11" id="Stroke-5" stroke="#FFFFFF" stroke-width="1.5" stroke-linecap="round" stroke-linejoin="round"></line>
                <line x1="9" y1="12" x2="11" y2="12" id="Stroke-7" stroke="#FFFFFF" stroke-width="1.5" stroke-linecap="round" stroke-linejoin="round"></line>
                <line x1="14" y1="7" x2="14" y2="9" id="直线" stroke="#FFFFFF" stroke-width="1.5" stroke-linecap="round" stroke-linejoin="round"></line>
                <line x1="6" y1="7" x2="6" y2="9" id="直线" stroke="#FFFFFF" stroke-width="1.5" stroke-linecap="round" stroke-linejoin="round"></line>
                <path d="M4.5,5 L15.5,5 C16.3284271,5 17,5.67157288 17,6.5 L17,7 C17,7.55228475 16.5522847,8 16,8 L4,8 C3.44771525,8 3,7.55228475 3,7 L3,6.5 C3,5.67157288 3.67157288,5 4.5,5 Z" id="矩形" stroke="#FFFFFF" stroke-width="1.5" stroke-linecap="round" stroke-linejoin="round"></path>
                <line x1="7.5" y1="4.5" x2="12.5" y2="4.5" id="Stroke-9" stroke="#FFFFFF" stroke-width="1.5" stroke-linecap="round" stroke-linejoin="round"></line>
            </g>
        </g>
    </g>
</svg>