<?xml version="1.0" encoding="UTF-8"?>
<svg width="20px" height="20px" viewBox="0 0 20 20" version="1.1" xmlns="http://www.w3.org/2000/svg" xmlns:xlink="http://www.w3.org/1999/xlink">
    <title>切片</title>
    <g id="DO-IT" stroke="none" stroke-width="1" fill="none" fill-rule="evenodd">
        <g id="DOIT视觉规范" transform="translate(-134.000000, -242.000000)">
            <g id="doit-label-life" transform="translate(134.000000, 242.000000)">
                <rect id="矩形" fill-opacity="0" fill="#D8D8D8" x="0" y="0" width="20" height="20"></rect>
                <line x1="5.5" y1="17.5" x2="13.5" y2="17.5" id="直线-4" stroke="#FFFFFF" stroke-width="1.5" stroke-linecap="round" stroke-linejoin="round"></line>
                <path d="M5,6 L14,6 C14.5522847,6 15,6.44771525 15,7 L15,10.5 C15,12.9852814 12.9852814,15 10.5,15 L8.5,15 C6.01471863,15 4,12.9852814 4,10.5 L4,7 C4,6.44771525 4.44771525,6 5,6 Z" id="矩形" stroke="#FFFFFF" stroke-width="1.5" stroke-linecap="round" stroke-linejoin="round"></path>
                <path d="M15,7 L15.5,7 C16.3284271,7 17,7.67157288 17,8.5 L17,9 C17,10.1045695 16.1045695,11 15,11 L15,11 L15,11 L15,7 Z" id="矩形" stroke="#FFFFFF" stroke-width="1.5" stroke-linecap="round" stroke-linejoin="round"></path>
                <line x1="8" y1="3" x2="8" y2="4.5" id="直线" stroke="#FFFFFF" stroke-width="1.5" stroke-linecap="round" stroke-linejoin="round"></line>
                <line x1="11" y1="4" x2="11" y2="4.5" id="直线" stroke="#FFFFFF" stroke-width="1.5" stroke-linecap="round" stroke-linejoin="round"></line>
            </g>
        </g>
    </g>
</svg>