<?xml version="1.0" encoding="UTF-8"?>
<svg width="18px" height="18px" viewBox="0 0 18 18" version="1.1" xmlns="http://www.w3.org/2000/svg" xmlns:xlink="http://www.w3.org/1999/xlink">
    <title>切片</title>
    <g id="DO-IT" stroke="none" stroke-width="1" fill="none" fill-rule="evenodd">
        <g id="DOIT视觉规范" transform="translate(-135.000000, -243.000000)">
            <g id="doit-label-life" transform="translate(135.000000, 243.000000)">
                <rect id="矩形" fill-opacity="0" fill="#D8D8D8" x="0" y="0" width="18" height="18"></rect>
                <line x1="3.5" y1="15.5" x2="13.5" y2="15.5" id="直线-4" stroke="#FFFFFF" stroke-linecap="round" stroke-linejoin="round"></line>
                <path d="M4,5 L13,5 C13.5522847,5 14,5.44771525 14,6 L14,9.5 C14,11.9852814 11.9852814,14 9.5,14 L7.5,14 C5.01471863,14 3,11.9852814 3,9.5 L3,6 C3,5.44771525 3.44771525,5 4,5 Z" id="矩形" stroke="#FFFFFF" stroke-linecap="round" stroke-linejoin="round"></path>
                <path d="M14,6 L14.5,6 C15.3284271,6 16,6.67157288 16,7.5 L16,8 C16,9.1045695 15.1045695,10 14,10 L14,10 L14,10 L14,6 Z" id="矩形" stroke="#FFFFFF" stroke-linecap="round" stroke-linejoin="round"></path>
                <line x1="7" y1="2" x2="7" y2="3.5" id="直线" stroke="#FFFFFF" stroke-linecap="round" stroke-linejoin="round"></line>
                <line x1="10" y1="3" x2="10" y2="3.5" id="直线" stroke="#FFFFFF" stroke-linecap="round" stroke-linejoin="round"></line>
            </g>
        </g>
    </g>
</svg>