<?xml version="1.0" encoding="UTF-8"?>
<svg width="18px" height="18px" viewBox="0 0 18 18" version="1.1" xmlns="http://www.w3.org/2000/svg" xmlns:xlink="http://www.w3.org/1999/xlink">
    <title>切片</title>
    <g id="DO-IT" stroke="none" stroke-width="1" fill="none" fill-rule="evenodd">
        <g id="DOIT视觉规范" transform="translate(-91.000000, -243.000000)">
            <g id="doit-label-study" transform="translate(91.000000, 243.000000)">
                <rect id="矩形" fill-opacity="0" fill="#D8D8D8" x="0" y="0" width="18" height="18"></rect>
                <path d="M14,10 C15.1045695,10 16,10.8954305 16,12 C16,13.1045695 15.1045695,14 14,14 L2,14 L2.14926234,13.9945143 C3.18412221,13.9181651 4,13.0543618 4,12 C4,10.9456382 3.18412221,10.0818349 2.14926234,10.0054857 L2,10 L14,10 Z" id="路径" stroke="#FFFFFF" stroke-linecap="round" stroke-linejoin="round"></path>
                <path d="M16,4 C14.8954305,4 14,4.8954305 14,6 C14,7.0543618 14.8158778,7.91816512 15.8507377,7.99451426 L16,8 L4,8 C2.8954305,8 2,7.1045695 2,6 C2,4.8954305 2.8954305,4 4,4 L16,4 Z" id="路径" stroke="#FFFFFF" stroke-linecap="round" stroke-linejoin="round"></path>
            </g>
        </g>
    </g>
</svg>