<?xml version="1.0" encoding="UTF-8"?>
<svg width="20px" height="20px" viewBox="0 0 20 20" version="1.1" xmlns="http://www.w3.org/2000/svg" xmlns:xlink="http://www.w3.org/1999/xlink">
    <title>切片</title>
    <g id="DO-IT" stroke="none" stroke-width="1" fill="none" fill-rule="evenodd">
        <g id="DOIT视觉规范" transform="translate(-90.000000, -242.000000)">
            <g id="doit-label-study" transform="translate(90.000000, 242.000000)">
                <rect id="矩形" fill-opacity="0" fill="#D8D8D8" x="0" y="0" width="20" height="20"></rect>
                <path d="M13.5,11 C14.8807119,11 16,12.1192881 16,13.5 C16,14.8807119 14.8807119,16 13.5,16 L4,16 L3.99952419,15.9500875 C5.1408814,15.7186362 6,14.7096471 6,13.5 C6,12.2903529 5.1408814,11.2813638 3.99952419,11.0499125 L4,11 L13.5,11 Z" id="形状结合" stroke="#FFFFFF" stroke-width="1.5" stroke-linecap="round" stroke-linejoin="round"></path>
                <path d="M16,4 L16.000574,4.0498926 C14.8591679,4.2813059 14,5.29031824 14,6.5 C14,7.70968176 14.8591679,8.7186941 16.000574,8.9501074 L16,9 L6.5,9 C5.11928813,9 4,7.88071187 4,6.5 C4,5.11928813 5.11928813,4 6.5,4 L16,4 Z" id="形状结合" stroke="#FFFFFF" stroke-width="1.5" stroke-linecap="round" stroke-linejoin="round"></path>
            </g>
        </g>
    </g>
</svg>