<?xml version="1.0" encoding="UTF-8"?>
<svg width="20px" height="20px" viewBox="0 0 20 20" version="1.1" xmlns="http://www.w3.org/2000/svg" xmlns:xlink="http://www.w3.org/1999/xlink">
    <title>切片</title>
    <g id="DO-IT" stroke="none" stroke-width="1" fill="none" fill-rule="evenodd">
        <g id="DOIT视觉规范-暗夜模式" transform="translate(-398.000000, -724.000000)">
            <g id="doit-icon-game" transform="translate(398.000000, 724.000000)">
                <path d="M18,13 C18,14.6568542 16.6568542,16 15,16 C14.1119261,16 13.3139794,15.6141196 12.7646837,15.0008825 L7.23531632,15.0008825 C6.68602056,15.6141196 5.88807388,16 5,16 C3.34314575,16 2,14.6568542 2,13 L2,10 C2,7.23857625 4.23857625,5 7,5 L13,5 C15.7614237,5 18,7.23857625 18,10 L18,13 Z" id="路径" fill="#8C91A3"></path>
                <path d="M6.5,7.7 C5.50588745,7.7 4.7,8.50588745 4.7,9.5 C4.7,10.4941125 5.50588745,11.3 6.5,11.3 C7.49411255,11.3 8.3,10.4941125 8.3,9.5 C8.3,8.50588745 7.49411255,7.7 6.5,7.7 Z" id="路径" fill="#5B58F5" fill-rule="nonzero"></path>
                <path d="M13,7.7 C13.4418278,7.7 13.8,8.0581722 13.8,8.5 L13.8,8.7 L14,8.7 C14.4418278,8.7 14.8,9.0581722 14.8,9.5 C14.8,9.9418278 14.4418278,10.3 14,10.3 L13.8,10.3 L13.8,10.5 C13.8,10.9418278 13.4418278,11.3 13,11.3 C12.5581722,11.3 12.2,10.9418278 12.2,10.5 L12.2,10.3 L12,10.3 C11.5581722,10.3 11.2,9.9418278 11.2,9.5 C11.2,9.0581722 11.5581722,8.7 12,8.7 L12.2,8.7 L12.2,8.5 C12.2,8.0581722 12.5581722,7.7 13,7.7 Z" id="形状结合" fill="#EBEDF5" fill-rule="nonzero"></path>
            </g>
        </g>
    </g>
</svg>