<?xml version="1.0" encoding="UTF-8"?>
<svg width="20px" height="20px" viewBox="0 0 20 20" version="1.1" xmlns="http://www.w3.org/2000/svg" xmlns:xlink="http://www.w3.org/1999/xlink">
    <title>切片</title>
    <g id="DO-IT" stroke="none" stroke-width="1" fill="none" fill-rule="evenodd">
        <g id="DOIT视觉规范" transform="translate(-266.000000, -756.000000)">
            <g id="doit-icon-amusement" transform="translate(266.000000, 756.000000)">
                <rect id="矩形" fill-opacity="0" fill="#FFFFFF" x="0" y="0" width="20" height="20"></rect>
                <path d="M11,2.2 L9,2.2 C8.00588745,2.2 7.2,3.00588745 7.2,4 L7.2,10 C7.2,10.4418278 7.5581722,10.8 8,10.8 L12,10.8 C12.4418278,10.8 12.8,10.4418278 12.8,10 L12.8,4 C12.8,3.00588745 11.9941125,2.2 11,2.2 Z M11,3.8 L11.0531679,3.80714419 C11.1378173,3.83042863 11.2,3.90795254 11.2,4 L11.2,9.2 L8.8,9.2 L8.8,4 C8.8,3.88954305 8.88954305,3.8 9,3.8 L11,3.8 Z" id="矩形" fill="#3A36EE" fill-rule="nonzero"></path>
                <path d="M5.5,16 C5.77614237,16 6,16.2238576 6,16.5 L6,17 C6,17.2761424 5.77614237,17.5 5.5,17.5 C5.22385763,17.5 5,17.2761424 5,17 L5,16.5 C5,16.2238576 5.22385763,16 5.5,16 Z" id="直线-10" fill="#B8BBCC" fill-rule="nonzero"></path>
                <path d="M14.5,16 C14.7761424,16 15,16.2238576 15,16.5 L15,17 C15,17.2761424 14.7761424,17.5 14.5,17.5 C14.2238576,17.5 14,17.2761424 14,17 L14,16.5 C14,16.2238576 14.2238576,16 14.5,16 Z" id="直线-10" fill="#B8BBCC" fill-rule="nonzero"></path>
                <path d="M6,8 L14,8 C15.1045695,8 16,8.8954305 16,10 L16,15 C16,16.1045695 15.1045695,17 14,17 L6,17 C4.8954305,17 4,16.1045695 4,15 L4,10 C4,8.8954305 4.8954305,8 6,8 Z" id="矩形" fill="#B8BBCC"></path>
                <path d="M11.5,10.7 C11.9418278,10.7 12.3,11.0581722 12.3,11.5 L12.3,14.5 C12.3,14.9418278 11.9418278,15.3 11.5,15.3 C11.0581722,15.3 10.7,14.9418278 10.7,14.5 L10.7,11.5 C10.7,11.0581722 11.0581722,10.7 11.5,10.7 Z" id="路径" fill="#F7F7FA" fill-rule="nonzero"></path>
                <path d="M8.5,10.7 C8.9418278,10.7 9.3,11.0581722 9.3,11.5 L9.3,14.5 C9.3,14.9418278 8.9418278,15.3 8.5,15.3 C8.0581722,15.3 7.7,14.9418278 7.7,14.5 L7.7,11.5 C7.7,11.0581722 8.0581722,10.7 8.5,10.7 Z" id="路径" fill="#F7F7FA" fill-rule="nonzero"></path>
            </g>
        </g>
    </g>
</svg>