<?xml version="1.0" encoding="UTF-8"?>
<svg width="20px" height="20px" viewBox="0 0 20 20" version="1.1" xmlns="http://www.w3.org/2000/svg" xmlns:xlink="http://www.w3.org/1999/xlink">
    <title>切片</title>
    <g id="DO-IT" stroke="none" stroke-width="1" fill="none" fill-rule="evenodd">
        <g id="DOIT视觉规范-暗夜模式" transform="translate(-354.000000, -724.000000)">
            <g id="doit-icon--part-time" transform="translate(354.000000, 724.000000)">
                <circle id="椭圆形" fill="#8C91A3" cx="10" cy="10" r="7"></circle>
                <path d="M10,6.25 C10.4142136,6.25 10.75,6.58578644 10.75,7 L10.75,9.772 L12.6240377,12.5839749 C12.8329144,12.8972899 12.7749359,13.3106094 12.5037301,13.5557944 L12.4160251,13.6240377 C12.0713786,13.8538021 11.6057266,13.7606717 11.3759623,13.4160251 L9.37596228,10.4160251 C9.29382852,10.2928245 9.25,10.1480687 9.25,10 L9.25,7 C9.25,6.58578644 9.58578644,6.25 10,6.25 Z" id="直线-8" fill="#EBEDF5" fill-rule="nonzero"></path>
                <path d="M9.5,2 L10.5,2 C10.7761424,2 11,2.22385763 11,2.5 C11,2.77614237 10.7761424,3 10.5,3 L9.5,3 C9.22385763,3 9,2.77614237 9,2.5 C9,2.22385763 9.22385763,2 9.5,2 Z" id="矩形" fill="#5B58F5"></path>
            </g>
        </g>
    </g>
</svg>