<?xml version="1.0" encoding="UTF-8"?>
<svg width="20px" height="20px" viewBox="0 0 20 20" version="1.1" xmlns="http://www.w3.org/2000/svg" xmlns:xlink="http://www.w3.org/1999/xlink">
    <title>切片</title>
    <g id="DO-IT" stroke="none" stroke-width="1" fill="none" fill-rule="evenodd">
        <g id="DOIT视觉规范" transform="translate(-90.000000, -788.000000)">
            <g id="doit-icon-financing" transform="translate(90.000000, 788.000000)">
                <rect id="矩形" fill-opacity="0" fill="#FFFFFF" x="0" y="0" width="20" height="20"></rect>
                <path d="M5,4 L15,4 C16.1045695,4 17,4.8954305 17,6 L17,12 C17,13.1045695 16.1045695,14 15,14 L5,14 C3.8954305,14 3,13.1045695 3,12 L3,6 C3,4.8954305 3.8954305,4 5,4 Z" id="矩形" fill="#B8BBCC"></path>
                <path d="M10,12.2 C10.4418278,12.2 10.8,12.5581722 10.8,13 L10.8,15 C10.8,15.4418278 10.4418278,15.8 10,15.8 C9.5581722,15.8 9.2,15.4418278 9.2,15 L9.2,13 C9.2,12.5581722 9.5581722,12.2 10,12.2 Z" id="路径" fill="#B8BBCC" fill-rule="nonzero"></path>
                <path d="M9.74701779,14.2410534 C9.91123123,14.1863155 10.0887688,14.1863155 10.2529822,14.2410534 L13.2529822,15.2410534 C13.6721369,15.3807716 13.8986649,15.8338276 13.7589466,16.2529822 C13.6192284,16.6721369 13.1661724,16.8986649 12.7470178,16.7589466 L10,15.842 L7.25298221,16.7589466 C6.86875711,16.8870217 6.45604548,16.7073482 6.28230984,16.3536573 L6.24105336,16.2529822 C6.10133514,15.8338276 6.32786313,15.3807716 6.74701779,15.2410534 L9.74701779,14.2410534 Z" id="路径" fill="#B8BBCC" fill-rule="nonzero"></path>
                <path d="M13.4343146,6.43431458 C13.746734,6.12189514 14.253266,6.12189514 14.5656854,6.43431458 C14.8781049,6.74673401 14.8781049,7.25326599 14.5656854,7.56568542 L11.5656854,10.5656854 C11.253266,10.8781049 10.746734,10.8781049 10.4343146,10.5656854 L9,9.131 L6.56568542,11.5656854 C6.28166776,11.8497031 5.8372265,11.8755229 5.5240409,11.6431448 L5.43431458,11.5656854 C5.12189514,11.253266 5.12189514,10.746734 5.43431458,10.4343146 L8.43431458,7.43431458 C8.74673401,7.12189514 9.25326599,7.12189514 9.56568542,7.43431458 L11,8.869 L13.4343146,6.43431458 Z" id="路径" fill="#3A36EE" fill-rule="nonzero"></path>
            </g>
        </g>
    </g>
</svg>