<?xml version="1.0" encoding="UTF-8"?>
<svg width="20px" height="20px" viewBox="0 0 20 20" version="1.1" xmlns="http://www.w3.org/2000/svg" xmlns:xlink="http://www.w3.org/1999/xlink">
    <title>切片</title>
    <g id="DO-IT" stroke="none" stroke-width="1" fill="none" fill-rule="evenodd">
        <g id="DOIT视觉规范-暗夜模式" transform="translate(-398.000000, -756.000000)">
            <g id="doit-icon-Housing-costs" transform="translate(398.000000, 756.000000)">
                <path d="M14,8 L15,8 C16.1045695,8 17,8.8954305 17,10 L17,16 C17,16.5522847 16.5522847,17 16,17 L13,17 C12.4477153,17 12,16.5522847 12,16 L12,10 C12,8.8954305 12.8954305,8 14,8 Z" id="矩形" fill="#5B58F5"></path>
                <path d="M5,3 L12,3 C13.1045695,3 14,3.8954305 14,5 L14,17 L4,17 C3.44771525,17 3,16.5522847 3,16 L3,5 C3,3.8954305 3.8954305,3 5,3 Z" id="矩形" fill="#8C91A3"></path>
                <path d="M8.5,10 C9.88071187,10 11,11.1192881 11,12.5 L11,17 L6,17 L6,12.5 C6,11.1192881 7.11928813,10 8.5,10 Z" id="矩形" fill="#EBEDF5"></path>
            </g>
        </g>
    </g>
</svg>