<?xml version="1.0" encoding="UTF-8"?>
<svg width="20px" height="20px" viewBox="0 0 20 20" version="1.1" xmlns="http://www.w3.org/2000/svg" xmlns:xlink="http://www.w3.org/1999/xlink">
    <title>切片</title>
    <g id="DO-IT" stroke="none" stroke-width="1" fill="none" fill-rule="evenodd">
        <g id="DOIT视觉规范-暗夜模式" transform="translate(-178.000000, -756.000000)">
            <g id="doit-icon-necessities" transform="translate(178.000000, 756.000000)">
                <g id="编组" transform="translate(4.000000, 3.000000)">
                    <path d="M10,7.34788079e-16 L10,9 L7.999,9 L8,13 C8,13.5522847 7.55228475,14 7,14 L1,14 C0.44771525,14 -1.77635684e-15,13.5522847 -1.77635684e-15,13 L0,4 L0.0122274647,3.99957134 C0.122857252,1.7498025 0.97060901,-1.89096057e-16 2,0 L10,7.34788079e-16 Z" id="形状结合" fill="#8C91A3"></path>
                    <ellipse id="椭圆形" fill="#5B58F5" transform="translate(10.000000, 4.500000) rotate(-270.000000) translate(-10.000000, -4.500000) " cx="10" cy="4.5" rx="4.5" ry="2"></ellipse>
                    <path d="M10,5.25 C10.8284271,5.25 11.5,4.91421356 11.5,4.5 C11.5,4.08578644 10.8284271,3.75 10,3.75 C9.17157288,3.75 8.5,4.08578644 8.5,4.5 C8.5,4.91421356 9.17157288,5.25 10,5.25 Z" id="椭圆形" fill="#EBEDF5" transform="translate(10.000000, 4.500000) rotate(-270.000000) translate(-10.000000, -4.500000) "></path>
                    <path d="M3.5,3 L3.5,4.5 C3.5,4.77614237 3.72385763,5 4,5 C4.27614237,5 4.5,4.77614237 4.5,4.5 L4.5,3 C4.5,2.72385763 4.27614237,2.5 4,2.5 C3.72385763,2.5 3.5,2.72385763 3.5,3 Z M3.5,6.5 L3.5,8 C3.5,8.27614237 3.72385763,8.5 4,8.5 C4.27614237,8.5 4.5,8.27614237 4.5,8 L4.5,6.5 C4.5,6.22385763 4.27614237,6 4,6 C3.72385763,6 3.5,6.22385763 3.5,6.5 Z" id="直线" fill="#EBEDF5" fill-rule="nonzero" transform="translate(4.000000, 5.500000) rotate(-270.000000) translate(-4.000000, -5.500000) "></path>
                </g>
            </g>
        </g>
    </g>
</svg>