<?xml version="1.0" encoding="UTF-8"?>
<svg width="20px" height="20px" viewBox="0 0 20 20" version="1.1" xmlns="http://www.w3.org/2000/svg" xmlns:xlink="http://www.w3.org/1999/xlink">
    <title>切片</title>
    <g id="DO-IT" stroke="none" stroke-width="1" fill="none" fill-rule="evenodd">
        <g id="DOIT视觉规范" transform="translate(-46.000000, -756.000000)">
            <g id="doit-icon-additional" transform="translate(46.000000, 756.000000)">
                <rect id="矩形" fill-opacity="0" fill="#FFFFFF" x="0" y="0" width="20" height="20"></rect>
                <path d="M6,4 L14,4 C16.209139,4 18,5.790861 18,8 L18,12 C18,14.209139 16.209139,16 14,16 L6,16 C3.790861,16 2,14.209139 2,12 L2,8 C2,5.790861 3.790861,4 6,4 Z" id="矩形" fill="#B8BBCC"></path>
                <path d="M14,4.7 L6,4.7 C4.17746033,4.7 2.7,6.17746033 2.7,8 L2.7,12 C2.7,13.8225397 4.17746033,15.3 6,15.3 L14,15.3 C15.8225397,15.3 17.3,13.8225397 17.3,12 L17.3,8 C17.3,6.17746033 15.8225397,4.7 14,4.7 Z M14,5.3 C15.4911688,5.3 16.7,6.50883118 16.7,8 L16.7,12 C16.7,13.4911688 15.4911688,14.7 14,14.7 L6,14.7 C4.50883118,14.7 3.3,13.4911688 3.3,12 L3.3,8 C3.3,6.50883118 4.50883118,5.3 6,5.3 L14,5.3 Z" id="矩形" fill="#F7F7FA" fill-rule="nonzero"></path>
                <path d="M11.928,7.22 C11.773964,7.22 11.6482927,7.24403896 11.5447979,7.29825054 L11.4735044,7.34313166 L11.4181658,7.38882702 C11.383983,7.41999255 11.3546936,7.45289493 11.3271432,7.48953168 L10,9.414 L8.72739844,7.55831201 C8.6501159,7.44233606 8.56373252,7.35567152 8.46457562,7.30113523 C8.36186584,7.24464485 8.23620564,7.22 8.08,7.22 C7.91177991,7.22 7.76513635,7.27459958 7.65586797,7.38386797 C7.54919529,7.49054064 7.492,7.62671643 7.492,7.776 L7.50002565,7.86239174 L7.5276781,7.96476324 C7.55104309,8.03127448 7.5843543,8.09532365 7.62812895,8.16297538 L8.913,9.916 L8.424,9.916 C8.26205157,9.916 8.12269146,9.99950116 8.04037211,10.1416891 C7.98387589,10.2392735 7.956,10.3508818 7.956,10.472 C7.956,10.5931182 7.98387589,10.7047265 8.04037211,10.8023109 L8.08517549,10.8664846 L8.14371109,10.9247873 C8.22528986,10.9938054 8.32053898,11.028 8.424,11.028 L9.364,11.026 L9.364,11.115 L8.424,11.116 C8.26205157,11.116 8.12269146,11.1995012 8.04037211,11.3416891 C7.98387589,11.4392735 7.956,11.5508818 7.956,11.672 C7.956,11.7931182 7.98387589,11.9047265 8.04037211,12.0023109 L8.08517549,12.0664846 L8.14371109,12.1247873 C8.22528986,12.1938054 8.32053898,12.228 8.424,12.228 L9.364,12.228 L9.364,13.008 C9.364,13.1847366 9.45400488,13.33586 9.60965127,13.4292479 C9.72412298,13.4979309 9.85595312,13.532 10,13.532 C10.1424828,13.532 10.2740818,13.4986835 10.3899167,13.4318557 L10.4634684,13.3809619 L10.5284318,13.3168847 C10.6054401,13.2274965 10.644,13.1227477 10.644,13.008 L10.644,12.228 L11.592,12.228 C11.7506234,12.228 11.8858513,12.1435614 11.9676279,12.0023109 C12.0241241,11.9047265 12.052,11.7931182 12.052,11.672 C12.052,11.5508818 12.0241241,11.4392735 11.9676279,11.3416891 L11.9241032,11.2786932 L11.8668259,11.2202788 C11.7870055,11.1509665 11.6937853,11.116 11.592,11.116 L10.644,11.115 L10.644,11.026 L11.5918634,11.0279999 C11.7506234,11.028 11.8858513,10.9435614 11.9676279,10.8023109 C12.0241241,10.7047265 12.052,10.5931182 12.052,10.472 C12.052,10.3577796 12.0247364,10.2493727 11.9708648,10.1514244 L11.9279301,10.0862092 L11.8707033,10.025265 C11.7906552,9.95286319 11.6960502,9.916 11.592,9.916 L11.094,9.916 L12.3623926,8.17676494 C12.4607827,8.02565517 12.508,7.9009039 12.508,7.776 C12.508,7.6298346 12.4545278,7.49601537 12.3537858,7.38967661 C12.2464607,7.27638901 12.0988226,7.22 11.928,7.22 Z" id="路径" fill="#3A36EE" fill-rule="nonzero"></path>
            </g>
        </g>
    </g>
</svg>