<?xml version="1.0" encoding="UTF-8"?>
<svg width="20px" height="20px" viewBox="0 0 20 20" version="1.1" xmlns="http://www.w3.org/2000/svg" xmlns:xlink="http://www.w3.org/1999/xlink">
    <title>切片</title>
    <g id="DO-IT" stroke="none" stroke-width="1" fill="none" fill-rule="evenodd">
        <g id="DOIT视觉规范-暗夜模式" transform="translate(-266.000000, -724.000000)">
            <g id="doit-icon-salary" transform="translate(266.000000, 724.000000)">
                <path d="M3,5 L17,5 C17.5522847,5 18,5.44771525 18,6 L18,14 C18,14.5522847 17.5522847,15 17,15 L3,15 C2.44771525,15 2,14.5522847 2,14 L2,6 C2,5.44771525 2.44771525,5 3,5 Z" id="矩形" fill="#8C91A3"></path>
                <rect id="矩形" fill="#EBEDF5" x="2" y="8" width="16" height="2"></rect>
                <path d="M15,8.2 C15.4418278,8.2 15.8,8.5581722 15.8,9 C15.8,9.4418278 15.4418278,9.8 15,9.8 L13,9.8 C12.5581722,9.8 12.2,9.4418278 12.2,9 C12.2,8.5581722 12.5581722,8.2 13,8.2 L15,8.2 Z" id="路径" fill="#5B58F5" fill-rule="nonzero"></path>
            </g>
        </g>
    </g>
</svg>