<?xml version="1.0" encoding="UTF-8"?>
<svg width="140px" height="140px" viewBox="0 0 140 140" version="1.1" xmlns="http://www.w3.org/2000/svg" xmlns:xlink="http://www.w3.org/1999/xlink">
    <title>doit-blank-bookkeeping</title>
    <defs>
        <linearGradient x1="50%" y1="100%" x2="50%" y2="0%" id="linearGradient-1">
            <stop stop-color="#F0F0FF" offset="0%"></stop>
            <stop stop-color="#DBDEEE" offset="100%"></stop>
        </linearGradient>
    </defs>
    <g id="DO-IT" stroke="none" stroke-width="1" fill="none" fill-rule="evenodd">
        <g id="DOIT-暂无记账" transform="translate(-118.000000, -258.000000)">
            <g id="doit-blank-bookkeeping" transform="translate(118.000000, 258.000000)">
                <rect id="矩形" fill-opacity="0" fill="#FFFFFF" x="0" y="0" width="140" height="140"></rect>
                <g id="colorful-life" transform="translate(5.305297, 14.348365)" fill="#F0F0FF" fill-rule="nonzero">
                    <path d="M9.49020304,10.4976351 C7.70420304,10.3266351 5.89920304,10.2506351 4.87320304,8.65463514 C4.47420304,7.95163514 4.32220304,7.15363514 4.34120304,6.56463514 C4.39820304,4.37963514 6.96320304,3.14463514 8.97720304,3.12563514 C8.93920304,2.06163514 8.76820304,1.16863514 8.84420304,0.0286351403 C6.16520304,-0.10436486 4.64520304,0.18063514 2.61220304,1.85263514 C1.32020304,2.91663514 0.104203043,4.39863514 0.00920304288,6.94463514 C-0.0667969571,8.86363514 0.313203043,9.94663514 1.70020304,11.5236351 C2.76420304,12.7396351 5.63320304,14.1266351 8.55920304,14.0126351 L9.49020304,10.4976351 Z" id="路径"></path>
                    <path d="M16.292203,0.23763514 C13.328203,0.27563514 11.105203,2.04263514 10.364203,4.55063514 C10.041203,5.61463514 9.90820304,7.22963514 10.060203,8.36963514 C10.535203,11.9606351 13.651203,13.8226351 16.463203,13.7656351 C20.415203,13.6896351 22.106203,10.8396351 22.163203,7.22963514 C22.220203,3.82863514 19.864203,0.19963514 16.292203,0.23763514 Z M16.387203,3.63863514 C19.237203,3.60063514 19.579203,9.20563514 16.843203,9.41463514 C16.748203,9.41463514 16.387203,9.39563514 16.292203,9.39563514 C14.981203,9.31963514 14.050203,8.27463514 13.765203,7.11563514 C13.632203,6.56463514 13.632203,5.95663514 13.822203,5.31063514 C14.145203,4.26563514 15.133203,3.63863514 16.387203,3.63863514 Z" id="形状"></path>
                    <path d="M23.911203,0.00963514033 C23.854203,0.63663514 22.961203,13.7846351 22.961203,13.7846351 C23.949203,13.9936351 31.644203,13.4806351 31.644203,13.4806351 C31.929203,12.7016351 31.910203,10.2316351 31.701203,9.45263514 C31.093203,9.47163514 27.578203,10.1936351 27.502203,9.98463514 C27.445203,9.79463514 27.331203,0.71263514 27.065203,0.46563514 C26.837203,0.23763514 25.070203,-0.0283648597 23.911203,0.00963514033 Z" id="路径"></path>
                    <path d="M39.035203,0.23763514 C36.071203,0.27563514 33.848203,2.04263514 33.107203,4.55063514 C32.784203,5.61463514 32.651203,7.22963514 32.803203,8.36963514 C33.278203,11.9606351 36.394203,13.8226351 39.206203,13.7656351 C43.158203,13.6896351 44.849203,10.8396351 44.906203,7.22963514 C44.963203,3.82863514 42.607203,0.19963514 39.035203,0.23763514 Z M39.130203,3.63863514 C41.980203,3.60063514 42.322203,9.20563514 39.586203,9.41463514 C39.491203,9.41463514 39.130203,9.39563514 39.035203,9.39563514 C37.724203,9.31963514 36.793203,8.27463514 36.508203,7.11563514 C36.375203,6.56463514 36.375203,5.95663514 36.565203,5.31063514 C36.888203,4.26563514 37.876203,3.63863514 39.130203,3.63863514 Z" id="形状"></path>
                    <path d="M52.050203,7.57163514 C53.893203,7.36263514 55.280203,5.59563514 55.109203,3.86663514 C54.938203,1.60563514 53.551203,0.14263514 51.157203,0.19963514 L45.970203,0.31363514 L45.723203,13.5756351 C47.034203,13.8416351 48.972203,13.7466351 50.416203,13.6516351 C50.264203,12.3026351 50.226203,10.6686351 49.865203,9.37663514 C49.865203,9.09163514 52.126203,12.2266351 53.551203,13.8606351 C54.767203,13.7086351 56.800203,13.0816351 57.275203,12.3596351 C55.603203,10.7446351 53.741203,9.18663514 52.050203,7.57163514 Z M49.238203,2.61263514 C51.119203,2.49863514 51.537203,3.25863514 51.480203,4.09463514 C51.423203,5.10163514 50.169203,5.40563514 49.181203,5.51963514 L49.238203,2.61263514 Z" id="形状"></path>
                    <path d="M59.061203,0.82663514 C58.282203,4.28463514 57.807203,9.50963514 57.883203,13.0246351 C59.555203,13.8606351 60.676203,13.8416351 62.462203,13.7656351 C62.405203,11.2196351 62.367203,10.1936351 62.424203,7.95163514 C63.602203,7.85663514 64.970203,7.83763514 66.053203,7.79963514 C66.091203,7.19163514 66.034203,6.35563514 66.053203,5.42463514 C66.053203,5.42463514 62.177203,5.38663514 62.101203,5.40563514 L62.101203,3.42963514 C63.165203,3.08763514 64.761203,2.91663514 66.661203,2.89763514 C66.718203,2.63163514 66.984203,0.94063514 67.079203,0.10463514 C64.058203,0.29463514 61.873203,0.52263514 59.061203,0.82663514 Z" id="路径"></path>
                    <path d="M67.801203,11.7516351 C69.245203,13.1576351 70.043203,13.6896351 72.190203,13.7846351 C74.432203,13.8796351 76.218203,12.6256351 76.237203,12.6446351 C76.313203,12.6636351 76.294203,13.1196351 76.389203,14.0506351 C76.427203,14.3356351 78.498203,13.7846351 78.802203,13.6516351 C79.467203,13.3666351 79.258203,12.1696351 79.201203,11.5426351 L78.346203,2.32763514 C78.232203,0.99763514 77.909203,0.14263514 76.655203,0.16163514 L75.173203,0.16163514 C75.021203,0.18063514 75.040203,0.27563514 75.040203,0.42763514 C75.249203,2.87863514 75.382203,6.14663514 75.496203,8.63563514 C75.591203,10.8016351 71.392203,11.2576351 71.202203,8.12263514 L70.784203,0.56063514 C70.784203,0.48463514 70.708203,0.42763514 70.632203,0.42763514 C70.100203,0.42763514 68.162203,0.42763514 68.029203,0.44663514 C67.858203,0.48463514 67.497203,0.78863514 67.459203,1.30163514 C67.440203,1.70063514 67.668203,9.07263514 67.801203,11.7516351 Z" id="路径"></path>
                    <path d="M81.101203,0.00963514033 C81.044203,0.63663514 80.151203,13.7846351 80.151203,13.7846351 C81.139203,13.9936351 88.834203,13.4806351 88.834203,13.4806351 C89.119203,12.7016351 89.100203,10.2316351 88.891203,9.45263514 C88.283203,9.47163514 84.768203,10.1936351 84.692203,9.98463514 C84.635203,9.79463514 84.521203,0.71263514 84.255203,0.46563514 C84.027203,0.23763514 82.260203,-0.0283648597 81.101203,0.00963514033 Z" id="路径"></path>
                    <path d="M96.016203,0.00963514033 C95.959203,0.63663514 95.066203,13.7846351 95.066203,13.7846351 C96.054203,13.9936351 103.749203,13.4806351 103.749203,13.4806351 C104.034203,12.7016351 104.015203,10.2316351 103.806203,9.45263514 C103.198203,9.47163514 99.683203,10.1936351 99.607203,9.98463514 C99.550203,9.79463514 99.436203,0.71263514 99.170203,0.46563514 C98.942203,0.23763514 97.175203,-0.0283648597 96.016203,0.00963514033 Z" id="路径"></path>
                    <path d="M109.164203,0.21863514 C107.853203,0.33263514 106.675203,0.46563514 105.896203,0.61763514 C105.573203,4.56963514 105.174203,9.22463514 104.927203,13.3856351 C106.162203,13.6896351 107.834203,13.8606351 109.449203,13.8986351 C109.373203,9.71863514 109.677203,3.96163514 109.164203,0.21863514 Z" id="路径"></path>
                    <path d="M111.881203,0.82663514 C111.102203,4.28463514 110.627203,9.50963514 110.703203,13.0246351 C112.375203,13.8606351 113.496203,13.8416351 115.282203,13.7656351 C115.225203,11.2196351 115.187203,10.1936351 115.244203,7.95163514 C116.422203,7.85663514 117.790203,7.83763514 118.873203,7.79963514 C118.911203,7.19163514 118.854203,6.35563514 118.873203,5.42463514 C118.873203,5.42463514 114.997203,5.38663514 114.921203,5.40563514 L114.921203,3.42963514 C115.985203,3.08763514 117.581203,2.91663514 119.481203,2.89763514 C119.538203,2.63163514 119.804203,0.94063514 119.899203,0.10463514 C116.878203,0.29463514 114.693203,0.52263514 111.881203,0.82663514 Z" id="路径"></path>
                    <path d="M129.380203,10.5356351 C127.575203,10.8586351 126.397203,10.9156351 124.896203,10.8396351 C124.782203,10.0226351 124.782203,8.99663514 124.782203,8.16063514 C126.207203,8.23663514 127.195203,8.19863514 128.449203,8.10363514 C128.468203,7.49563514 128.544203,6.54563514 128.392203,5.82363514 C128.069203,5.84263514 127.005203,5.84263514 124.725203,5.86163514 L124.668203,3.48663514 C125.770203,3.23963514 127.252203,3.06863514 128.981203,3.04963514 C129.114203,2.51763514 129.209203,1.33963514 129.209203,0.29463514 C126.720203,0.27563514 123.015203,0.56063514 121.343203,0.86463514 C121.020203,4.70263514 120.621203,9.20563514 120.355203,13.2336351 C122.939203,13.8606351 127.290203,13.8226351 129.418203,13.6326351 C129.399203,12.8726351 129.551203,11.2006351 129.380203,10.5356351 Z" id="路径"></path>
                </g>
                <path d="M38,66 L102,66 L102,106 C102,112.627417 96.627417,118 90,118 L50,118 C43.372583,118 38,112.627417 38,106 L38,66 L38,66 Z" id="矩形" stroke="#F7F7FA" fill="url(#linearGradient-1)" stroke-linecap="round" stroke-linejoin="round"></path>
                <path d="M50,22 L90,22 C96.627417,22 102,27.372583 102,34 L102,57 L102,57 L38,57 L38,34 C38,27.372583 43.372583,22 50,22 Z" id="矩形" stroke="#F7F7FA" fill="#B8BBCC" stroke-linecap="round" stroke-linejoin="round"></path>
                <path d="M35,54 L113,54 C114.656854,54 116,55.3431458 116,57 C116,58.6568542 114.656854,60 113,60 L35,60 L35,60 L25.7687337,57.4823819 C25.5023215,57.409724 25.3452526,57.1348535 25.4179105,56.8684413 C25.4644935,56.6976367 25.597929,56.5642012 25.7687337,56.5176181 L35,54 L35,54 Z" id="矩形" fill="#3A36EE"></path>
                <rect id="矩形" fill="#DBDEEE" x="90" y="56" width="22" height="2" rx="1"></rect>
            </g>
        </g>
    </g>
</svg>