<?xml version="1.0" encoding="UTF-8"?>
<svg width="20px" height="20px" viewBox="0 0 20 20" version="1.1" xmlns="http://www.w3.org/2000/svg" xmlns:xlink="http://www.w3.org/1999/xlink">
    <title>切片</title>
    <g id="DO-IT" stroke="none" stroke-width="1" fill="none" fill-rule="evenodd">
        <g id="DOIT视觉规范-暗夜模式" transform="translate(-310.000000, -596.000000)">
            <g id="doit-icon-contact-us" transform="translate(310.000000, 596.000000)">
                <path d="M5,4 L15,4 C16.1045695,4 17,4.8954305 17,6 L17,13 C17,14.1045695 16.1045695,15 15,15 L8.38516481,15 C8.13072595,15 7.878624,15.0485504 7.64238345,15.1430466 L5.5,16 C4.56521255,16.373915 3.50429961,15.919238 3.13038464,14.9844506 C3.04425289,14.7691212 3,14.5393344 3,14.3074176 L3,6 C3,4.8954305 3.8954305,4 5,4 Z" id="矩形" stroke="#EBEDF5" stroke-width="1.6" stroke-linecap="round" stroke-linejoin="round"></path>
                <path d="M9.5,12 L10.5,12 C10.7761424,12 11,12.2238576 11,12.5 C11,12.7761424 10.7761424,13 10.5,13 L9.5,13 C9.22385763,13 9,12.7761424 9,12.5 C9,12.2238576 9.22385763,12 9.5,12 Z M10,6 C10.5522847,6 11,6.44771525 11,7 L11,10 C11,10.5522847 10.5522847,11 10,11 C9.44771525,11 9,10.5522847 9,10 L9,7 C9,6.44771525 9.44771525,6 10,6 Z" id="形状结合" fill="#ABAFC2"></path>
            </g>
        </g>
    </g>
</svg>