<?xml version="1.0" encoding="UTF-8"?>
<svg width="140px" height="140px" viewBox="0 0 140 140" version="1.1" xmlns="http://www.w3.org/2000/svg" xmlns:xlink="http://www.w3.org/1999/xlink">
    <title>doit-blank-diary</title>
    <defs>
        <linearGradient x1="74.3593811%" y1="0%" x2="29.4805037%" y2="90.191363%" id="linearGradient-1">
            <stop stop-color="#DBDEEE" stop-opacity="0" offset="0%"></stop>
            <stop stop-color="#B8BBCC" offset="100%"></stop>
        </linearGradient>
        <path d="M7.39985305,24.7974349 C4.39985305,26.7974349 -1.60014695,25.7974349 0.399853047,15.7974349 C2.39985305,5.79743495 17.399853,2.79743495 19.399853,0.797434948 C21.399853,-1.20256505 25.399853,-0.202565052 26.399853,12.7974349 C27.399853,25.7974349 16.399853,28.7974349 12.399853,28.7974349 C8.39985305,28.7974349 7.39985305,25.7974349 7.39985305,24.7974349 Z" id="path-2"></path>
        <linearGradient x1="-9.6587727%" y1="57.8634525%" x2="71.7564371%" y2="44.3857695%" id="linearGradient-4">
            <stop stop-color="#F0F0FF" offset="0%"></stop>
            <stop stop-color="#DBDEEE" offset="100%"></stop>
        </linearGradient>
        <linearGradient x1="0%" y1="51.2421178%" x2="20.5166305%" y2="32.244415%" id="linearGradient-5">
            <stop stop-color="#F0F0FF" offset="0%"></stop>
            <stop stop-color="#DBDEEE" offset="100%"></stop>
        </linearGradient>
        <linearGradient x1="6.37730559%" y1="61.6271334%" x2="28.0839434%" y2="40.3744092%" id="linearGradient-6">
            <stop stop-color="#F0F0FF" offset="0%"></stop>
            <stop stop-color="#DBDEEE" offset="100%"></stop>
        </linearGradient>
        <linearGradient x1="0%" y1="111.702313%" x2="54.4261307%" y2="35.1404432%" id="linearGradient-7">
            <stop stop-color="#F0F0FF" offset="0%"></stop>
            <stop stop-color="#DBDEEE" offset="100%"></stop>
        </linearGradient>
    </defs>
    <g id="DO-IT" stroke="none" stroke-width="1" fill="none" fill-rule="evenodd">
        <g id="DOIT-暂无随记" transform="translate(-118.000000, -258.000000)">
            <g id="doit-blank-diary" transform="translate(118.000000, 258.000000)">
                <rect id="矩形" fill-opacity="0" fill="#FFFFFF" x="0" y="0" width="140" height="140"></rect>
                <g id="better-day" transform="translate(16.980500, 24.168000)" fill="#F0F0FF" fill-rule="nonzero">
                    <path d="M10.26,10.507 C10.469,9.025 9.823,7.258 7.638,6.935 C8.854,6.555 9.538,5.092 9.5,3.819 C9.367,-0.627 3.648,0.076 0.228,0.931 L0,13.642 C3.401,14.326 9.633,14.896 10.26,10.507 Z M3.857,11.286 C3.724,10.26 3.819,9.158 3.667,8.151 C5.491,7.828 6.726,8.778 6.688,9.595 C6.65,10.431 5.909,11.305 3.857,11.286 Z M3.534,2.907 C5.415,2.793 5.852,3.534 5.795,4.37 C5.738,5.339 4.465,5.643 3.477,5.757 L3.534,2.907 Z" id="形状"></path>
                    <path d="M20.178,10.716 C18.373,11.039 17.195,11.096 15.694,11.02 C15.58,10.203 15.58,9.177 15.58,8.341 C17.005,8.417 17.993,8.379 19.247,8.284 C19.266,7.676 19.342,6.726 19.19,6.004 C18.867,6.023 17.803,6.023 15.523,6.042 L15.466,3.667 C16.568,3.42 18.05,3.249 19.779,3.23 C19.912,2.698 20.007,1.52 20.007,0.475 C17.518,0.456 13.813,0.741 12.141,1.045 C11.818,4.883 11.419,9.386 11.153,13.414 C13.737,14.041 18.088,14.003 20.216,13.813 C20.197,13.053 20.349,11.381 20.178,10.716 Z" id="路径"></path>
                    <path d="M21.945,0.456 C21.736,0.475 21.622,0.532 21.546,0.76 C21.261,1.862 20.995,2.755 20.767,3.686 C20.748,3.781 20.881,3.838 20.938,3.819 L23.598,3.477 C23.674,4.047 23.541,6.935 23.484,9.234 C23.408,11.514 23.142,13.756 23.142,13.756 C23.142,13.756 22.857,14.193 23.541,14.174 C24.244,14.136 27.075,14.003 27.493,13.566 C27.873,13.186 27.303,5.225 27.17,2.907 C27.151,2.831 27.17,2.812 27.246,2.812 L30.001,2.565 C30.039,2.565 30.058,2.546 30.058,2.489 C30.077,1.786 30.077,1.064 30.096,0.342 C30.096,0.209 30.077,0.19 29.944,0.19 C27.284,0.285 24.586,0.57 21.945,0.456 Z" id="路径"></path>
                    <path d="M31.673,0.456 C31.464,0.475 31.35,0.532 31.274,0.76 C30.989,1.862 30.723,2.755 30.495,3.686 C30.476,3.781 30.609,3.838 30.666,3.819 L33.326,3.477 C33.402,4.047 33.269,6.935 33.212,9.234 C33.136,11.514 32.87,13.756 32.87,13.756 C32.87,13.756 32.585,14.193 33.269,14.174 C33.972,14.136 36.803,14.003 37.221,13.566 C37.601,13.186 37.031,5.225 36.898,2.907 C36.879,2.831 36.898,2.812 36.974,2.812 L39.729,2.565 C39.767,2.565 39.786,2.546 39.786,2.489 C39.805,1.786 39.805,1.064 39.824,0.342 C39.824,0.209 39.805,0.19 39.672,0.19 C37.012,0.285 34.314,0.57 31.673,0.456 Z" id="路径"></path>
                    <path d="M49.476,10.716 C47.671,11.039 46.493,11.096 44.992,11.02 C44.878,10.203 44.878,9.177 44.878,8.341 C46.303,8.417 47.291,8.379 48.545,8.284 C48.564,7.676 48.64,6.726 48.488,6.004 C48.165,6.023 47.101,6.023 44.821,6.042 L44.764,3.667 C45.866,3.42 47.348,3.249 49.077,3.23 C49.21,2.698 49.305,1.52 49.305,0.475 C46.816,0.456 43.111,0.741 41.439,1.045 C41.116,4.883 40.717,9.386 40.451,13.414 C43.035,14.041 47.386,14.003 49.514,13.813 C49.495,13.053 49.647,11.381 49.476,10.716 Z" id="路径"></path>
                    <path d="M56.734,7.752 C58.577,7.543 59.964,5.776 59.793,4.047 C59.622,1.786 58.235,0.323 55.841,0.38 L50.654,0.494 L50.407,13.756 C51.718,14.022 53.656,13.927 55.1,13.832 C54.948,12.483 54.91,10.849 54.549,9.557 C54.549,9.272 56.81,12.407 58.235,14.041 C59.451,13.889 61.484,13.262 61.959,12.54 C60.287,10.925 58.425,9.367 56.734,7.752 Z M53.922,2.793 C55.803,2.679 56.221,3.439 56.164,4.275 C56.107,5.282 54.853,5.586 53.865,5.7 L53.922,2.793 Z" id="形状"></path>
                    <path d="M77.007,2.641 C75.962,1.52 74.632,0.836 73.055,0.589 C72.257,0.456 70.756,0.437 68.552,0.57 C68.419,1.615 68.248,3.439 68.039,6.061 C67.754,9.424 67.64,12.046 67.64,13.946 C71.858,14.022 74.822,13.433 76.456,12.198 C77.843,11.172 78.565,9.405 78.622,6.954 C78.66,5.263 78.128,3.838 77.007,2.641 Z M71.497,9.728 C71.516,5.795 71.535,3.876 71.535,3.686 C71.63,3.667 71.744,3.648 71.858,3.648 C73.739,3.648 75.411,4.56 75.373,6.688 C75.335,8.797 74.233,9.766 71.497,9.728 Z" id="形状"></path>
                    <path d="M79.04,13.49 C79.04,13.509 79.059,13.528 79.078,13.528 C79.458,13.547 82.84,13.775 82.954,13.794 C83.087,13.813 83.201,13.813 83.239,13.661 C83.41,12.977 83.98,11.647 84.474,10.279 C85.063,10.241 86.944,10.412 87.932,10.431 C87.932,10.507 87.951,10.545 87.951,10.602 C88.008,10.925 88.369,13.433 88.616,13.775 C88.73,13.927 92.929,13.794 93.043,13.775 C93.176,13.737 93.138,13.623 93.119,13.49 C92.663,9.956 91.257,6.327 89.756,2.983 C89.452,2.299 89.186,1.539 88.882,0.912 C88.768,0.665 88.73,0.57 88.464,0.532 C87.799,0.437 85.272,0.532 84.854,0.551 C84.607,0.551 84.607,0.608 84.436,0.836 C83.923,1.52 82.669,3.876 81.605,6.441 C80.294,9.576 79.154,12.958 79.04,13.49 Z M87.723,7.904 C87.286,7.942 85.158,8.094 85.386,7.201 C85.633,6.327 86.241,4.636 86.583,4.655 C86.925,4.693 87.647,7.353 87.704,7.676 C87.704,7.714 87.704,7.809 87.723,7.904 Z" id="形状"></path>
                    <path d="M99.883,4.636 C99.085,3.325 97.831,1.311 97.014,0.19 C96.121,0.323 94.297,0.703 93.537,1.615 C94.848,4.028 96.368,6.27 97.85,8.132 C97.831,8.55 97.812,8.949 97.812,9.348 C97.736,11.628 97.47,13.87 97.47,13.87 C97.47,13.87 97.185,14.307 97.869,14.288 C98.572,14.25 101.403,14.117 101.821,13.68 C102.03,13.471 101.954,10.944 101.821,8.322 C103.607,6.004 104.975,3.895 106.419,1.691 C105.963,0.874 104.101,0.152 102.961,0 C101.935,1.406 100.491,3.762 99.883,4.636 Z" id="路径"></path>
                </g>
                <g id="编组-6" transform="translate(31.600147, 25.202565)">
                    <path d="M4.39985305,67.7974349 C3.73318638,46.4641016 5.06651971,31.4641016 8.39985305,22.7974349" id="路径-13" stroke="#B8BBCC" stroke-linecap="round" stroke-linejoin="round"></path>
                    <path d="M7.39985305,24.7974349 C4.39985305,26.7974349 -1.60014695,25.7974349 0.399853047,15.7974349 C2.39985305,5.79743495 17.399853,2.79743495 19.399853,0.797434948 C21.399853,-1.20256505 25.399853,-0.202565052 26.399853,12.7974349 C27.399853,25.7974349 16.399853,28.7974349 12.399853,28.7974349 C8.39985305,28.7974349 7.39985305,25.7974349 7.39985305,24.7974349 Z" id="路径-18" fill="#DBDEEE"></path>
                    <g id="路径-18">
                        <mask id="mask-3" fill="white">
                            <use xlink:href="#path-2"></use>
                        </mask>
                        <use id="蒙版" fill="url(#linearGradient-1)" xlink:href="#path-2"></use>
                    </g>
                    <path d="M7.39985305,24.7974349 C7.39985305,24.1307683 7.39985305,23.7974349 7.39985305,23.7974349 C7.39985305,23.7974349 13.399853,8.79743495 17.399853,4.79743495 C13.399853,8.79743495 10.0665197,15.4641016 7.39985305,24.7974349 Z" id="路径-28" fill="#F7F7FA"></path>
                </g>
                <g id="编组-5" transform="translate(0.149540, 38.902222)">
                    <path d="M34.8504605,55.0977778 C34.8504605,35.7644444 31.5171271,20.7644444 24.8504605,10.0977778" id="路径-12" stroke="#B8BBCC" stroke-linecap="round" stroke-linejoin="round"></path>
                    <path d="M25.9799615,11.452108 C23.9699423,13.515964 17.9398845,13.515964 12.9148364,11.452108 C7.8897883,9.3882519 3.86974981,6.29246781 0.854720947,6.29246781 C-2.16030792,6.29246781 2.86474019,-0.9310284 14.9248557,0.10089963 C26.9849711,1.13282766 30,5.26053978 30,8.35632387 C30,11.452108 23.9699423,10.4201799 25.9799615,11.452108 Z" id="路径-17" fill="url(#linearGradient-4)"></path>
                    <path d="M8.85046046,5.09777778 C13.8504605,5.09777778 23.5309924,8.97797727 23.8504605,9.09777778 C24.0634391,9.17764478 24.3967725,9.51097811 24.8504605,10.0977778 C19.5171271,6.76444444 14.1837938,5.09777778 8.85046046,5.09777778 Z" id="路径-27" fill="#F7F7FA"></path>
                </g>
                <g id="编组-4" transform="translate(35.000000, 52.105573)">
                    <path d="M0,40.8944272 C1.33333333,14.8944272 5.66666667,1.89442719 13,1.89442719" id="路径-15" stroke="#B8BBCC" stroke-linecap="round" stroke-linejoin="round"></path>
                    <path d="M12,0.894427191 C10,-0.105572809 5,-1.10557281 6,2.89442719 C7,6.89442719 14,8.89442719 18,8.89442719 C22,8.89442719 34,9.89442719 34,12.8944272 C34,15.8944272 34,2.89442719 25,1.89442719 C16,0.894427191 14,1.89442719 12,0.894427191 Z" id="路径-19" fill="url(#linearGradient-5)"></path>
                    <path d="M15,1.89442719 C22.3333333,3.89442719 26.6666667,5.56109386 28,6.89442719 C25.3333333,4.89442719 20,2.89442719 12,0.894427191 L15,1.89442719 Z" id="路径-29" fill="#F7F7FA"></path>
                </g>
                <g id="编组-2" transform="translate(13.233593, 69.500000)">
                    <path d="M20.7664068,22.5 C20.7664068,14.5 19.4330735,8.16666667 16.7664068,3.5" id="路径-11" stroke="#B8BBCC" stroke-linecap="round" stroke-linejoin="round"></path>
                    <path d="M16.7664068,1.5 C18.7664068,1.5 22.7664068,3.5 18.7664068,6.5 C14.7664068,9.5 9.76640683,10.5 6.76640683,9.5 C3.76640683,8.5 2.76640683,5.5 0.76640683,6.5 C-1.23359317,7.5 0.76640683,3.5 5.76640683,1.5 C10.7664068,-0.5 14.7664068,-0.5 16.7664068,1.5 Z" id="路径-16" fill="url(#linearGradient-6)"></path>
                    <path d="M16.7664068,1.5 L15.7664068,1.5 C13.0997402,2.83333333 9.76640683,3.83333333 5.76640683,4.5 C8.4330735,3.83333333 12.0997402,2.83333333 16.7664068,1.5 Z" id="路径-31" fill="#F7F7FA"></path>
                </g>
                <g id="编组-3" transform="translate(36.921256, 76.477458)">
                    <path d="M1.07874436,19.5225425 C1.74541103,6.85587582 3.07874436,0.855875819 5.07874436,1.52254249" id="路径-14" stroke="#B8BBCC" stroke-linecap="round" stroke-linejoin="round"></path>
                    <path d="M4.07874436,0.450555452 C2.07874436,-0.411681522 -1.92125564,1.31279243 1.07874436,5.6239773 C4.07874436,9.93516217 6.07874436,9.93516217 7.07874436,11.6596361 C8.07874436,13.3841101 15.0787444,8.21068822 14.0787444,3.89950335 C13.0787444,-0.411681522 8.07874436,-0.411681522 4.07874436,0.450555452 Z" id="路径-20" fill="url(#linearGradient-7)"></path>
                    <path d="M4.07874436,0.522542486 C7.4120777,1.18920915 8.74541103,3.18920915 8.07874436,6.52254249 C8.07874436,3.85587582 7.74541103,2.18920915 7.07874436,1.52254249 L4.07874436,0.522542486 Z" id="路径-30" fill="#F7F7FA"></path>
                </g>
                <path d="M27.1735991,90 L44.8264009,90 C45.9309704,90 46.8264009,90.8954305 46.8264009,92 C46.8264009,92.0554355 46.8240961,92.110847 46.8194924,92.166091 L45.1528258,112.166091 C45.0664437,113.202675 44.1999115,114 43.1597342,114 L28.8402658,114 C27.8000885,114 26.9335563,113.202675 26.8471742,112.166091 L25.1805076,92.166091 C25.0887781,91.0653369 25.9067541,90.098638 27.0075081,90.0069085 C27.0627521,90.0023048 27.1181636,90 27.1735991,90 Z" id="矩形" fill="#DBDEEE"></path>
                <g id="编组" transform="translate(61.000000, 67.000000)">
                    <path id="直线-3" d="M16.8,46.8 C16.3581722,46.8 16,46.4418278 16,46 C16,45.5581722 16.3581722,45.2 16.8,45.2 L21.2,45.2 L21.2,2 C21.2,1.5581722 21.5581722,1.2 22,1.2 C22.4418278,1.2 22.8,1.5581722 22.8,2 L22.8,45.2 L27.2,45.2 C27.6418278,45.2 28,45.5581722 28,46 C28,46.4418278 27.6418278,46.8 27.2,46.8 L16.8,46.8 Z" fill="#373655" fill-rule="nonzero"></path>
                    <rect id="矩形" fill="#3A36EE" x="0" y="0" width="44" height="3" rx="1.5"></rect>
                </g>
                <g id="编组-7" transform="translate(104.798735, 58.000000)">
                    <path d="M26.2012654,0 C20.2012654,24.6666667 18.867932,43 22.2012654,55 M2.26078526,30.0767602 C2.54928435,36.5207872 1.93420629,44.8285338 0.415551081,55 M2.20126537,45 L20.2012654,45" id="形状结合" stroke="#DBDEEE" stroke-width="2" stroke-linecap="round" stroke-linejoin="round"></path>
                    <path d="M0.201265367,27 C1.20126537,24 17.2012654,25 21.2012654,26 C22.2012654,27 21.2012654,31 20.2012654,31 C14.2012654,30 4.20126537,30 3.20126537,30 C2.20126537,30 -0.798734633,30 0.201265367,27 Z" id="路径-5" fill="#B8BBCC"></path>
                </g>
            </g>
        </g>
    </g>
</svg>