<?xml version="1.0" encoding="UTF-8"?>
<svg width="30px" height="30px" viewBox="0 0 30 30" version="1.1" xmlns="http://www.w3.org/2000/svg" xmlns:xlink="http://www.w3.org/1999/xlink">
    <title>切片</title>
    <g id="DO-IT" stroke="none" stroke-width="1" fill="none" fill-rule="evenodd">
        <g id="DOIT视觉规范" transform="translate(-115.000000, -118.000000)">
            <g id="doit-tab-plan-unselected" transform="translate(115.000000, 118.000000)">
                <rect id="矩形" fill="#FFFFFF" opacity="0" x="0" y="0" width="30" height="30"></rect>
                <path d="M15,26 L10,26 C7.23857625,26 5,23.7614237 5,21 L5,10 C5,7.23857625 7.23857625,5 10,5 L17,5 C19.7614237,5 22,7.23857625 22,10 L22,12.5909091 L22,12.5909091" id="路径" stroke="#818DAA" stroke-width="2" stroke-linecap="round" stroke-linejoin="round"></path>
                <path d="M28,21 C28,24.3137647 25.3137647,27 22,27 C18.6862353,27 16,24.3137647 16,21 C16,17.6862353 18.6862353,15 22,15 C25.3137647,15 28,17.6862353 28,21" id="Fill-5" fill="#818DAA"></path>
                <line x1="11" y1="5" x2="16" y2="5" id="直线-2" stroke="#818DAA" stroke-width="3" stroke-linecap="round" stroke-linejoin="round"></line>
                <polyline id="直线" stroke="#FFFFFF" stroke-width="1.5" stroke-linecap="round" stroke-linejoin="round" points="22 19 22 21 24 23"></polyline>
                <line x1="11" y1="10" x2="17" y2="10" id="直线-3" stroke="#818DAA" stroke-width="2" stroke-linecap="round" stroke-linejoin="round"></line>
                <line x1="11" y1="15" x2="15" y2="15" id="直线-3" stroke="#818DAA" stroke-width="2" stroke-linecap="round" stroke-linejoin="round"></line>
                <path d="M8.5,10.5 C8.77614237,10.5 9,10.2761424 9,10 C9,9.72385763 8.77614237,9.5 8.5,9.5 C8.22385763,9.5 8,9.72385763 8,10 C8,10.2761424 8.22385763,10.5 8.5,10.5 Z M8.5,15.5 C8.77614237,15.5 9,15.2761424 9,15 C9,14.7238576 8.77614237,14.5 8.5,14.5 C8.22385763,14.5 8,14.7238576 8,15 C8,15.2761424 8.22385763,15.5 8.5,15.5 Z" id="：" fill="#818DAA"></path>
            </g>
        </g>
    </g>
</svg>