<?xml version="1.0" encoding="UTF-8"?>
<svg width="24px" height="24px" viewBox="0 0 24 24" version="1.1" xmlns="http://www.w3.org/2000/svg" xmlns:xlink="http://www.w3.org/1999/xlink">
    <title>切片</title>
    <g id="DO-IT" stroke="none" stroke-width="1" fill="none" fill-rule="evenodd">
        <g id="DOIT视觉规范-暗夜模式" transform="translate(-352.000000, -495.000000)">
            <g id="doit-icon-send-unselected" transform="translate(352.000000, 495.000000)">
                <path d="M8,12.5 L8,15.8698007 C8,16.4220854 8.44771525,16.8698007 9,16.8698007 C9.28563781,16.8698007 9.55764188,16.7476529 9.74740932,16.5341645 L16,9.5 L16,9.5" id="直线" stroke="#ABAFC2" stroke-width="2" stroke-linecap="round" stroke-linejoin="round"></path>
                <path d="M20.9386123,3.82629878 L15.6625447,19.6545016 C15.3132491,20.7023883 14.1806092,21.2687082 13.1327225,20.9194127 C12.7669837,20.7974997 12.4442745,20.5724788 12.2034405,20.2714362 L9.35715462,16.7135789 C9.05852931,16.3402973 9.06585496,15.807866 9.37463715,15.4429416 L15.0710589,8.71080677 C15.1424078,8.62648545 15.1318915,8.50028987 15.0475701,8.42894106 C14.973001,8.36584407 14.8637624,8.36584407 14.7891932,8.42894106 L8.05705839,14.1253629 C7.69213398,14.434145 7.15970274,14.4414707 6.7864211,14.1428454 L3.22856381,11.2965595 C2.36603994,10.6065405 2.22619719,9.3479557 2.91621629,8.48543183 C3.15705035,8.18438926 3.47975952,7.95936829 3.84549838,7.83745533 L19.6737012,2.56138772 C20.1976445,2.38673995 20.7639645,2.66989993 20.9386123,3.19384325 C21.0070345,3.39911006 21.0070345,3.62103198 20.9386123,3.82629878 Z" id="路径" fill="#8C91A3"></path>
            </g>
        </g>
    </g>
</svg>