<?xml version="1.0" encoding="UTF-8"?>
<svg width="20px" height="20px" viewBox="0 0 20 20" version="1.1" xmlns="http://www.w3.org/2000/svg" xmlns:xlink="http://www.w3.org/1999/xlink">
    <title>切片</title>
    <g id="DO-IT" stroke="none" stroke-width="1" fill="none" fill-rule="evenodd" stroke-linecap="round" stroke-linejoin="round">
        <g id="DOIT视觉规范-暗夜模式" transform="translate(-178.000000, -628.000000)" stroke="#FFFFFF" stroke-width="2">
            <g id="doit-icon-restores" transform="translate(178.000000, 628.000000)">
                <path d="M3,14 C3,10.6862915 5.6862915,8 9,8 L10,8 L10,4.6614494 C10,4.10916465 10.4477153,3.6614494 11,3.6614494 C11.2883626,3.6614494 11.5626886,3.78592983 11.7525767,4.00294479 L17,10 L11.7525767,15.9970552 C11.3888946,16.4126918 10.757132,16.4548093 10.3414954,16.0911273 C10.1244804,15.9012392 10,15.6269132 10,15.3385506 L10,12 C7.33333333,11.3333333 5,12 3,14 Z" id="形状结合" transform="translate(10.000000, 10.000010) scale(-1, 1) translate(-10.000000, -10.000010) "></path>
            </g>
        </g>
    </g>
</svg>