<?xml version="1.0" encoding="UTF-8"?>
<svg width="140px" height="140px" viewBox="0 0 140 140" version="1.1" xmlns="http://www.w3.org/2000/svg" xmlns:xlink="http://www.w3.org/1999/xlink">
    <title>doit-blank-schedule</title>
    <defs>
        <linearGradient x1="50%" y1="100%" x2="50%" y2="0%" id="linearGradient-1">
            <stop stop-color="#F0F0FF" offset="0%"></stop>
            <stop stop-color="#DBDEEE" offset="100%"></stop>
        </linearGradient>
    </defs>
    <g id="DO-IT" stroke="none" stroke-width="1" fill="none" fill-rule="evenodd">
        <g id="DOIT-暂无日程" transform="translate(-118.000000, -258.000000)">
            <g id="doit-blank-schedule" transform="translate(118.000000, 258.000000)">
                <rect id="矩形" fill-opacity="0" fill="#FFFFFF" x="0" y="0" width="140" height="140"></rect>
                <g id="stay-relaxed" transform="translate(3.020250, 105.959000)" fill="#F0F0FF" fill-rule="nonzero">
                    <path d="M10.10325,10.887 C10.10325,10.146 9.74225,9.31 9.00125,8.36 C8.08925,7.163 6.83525,6.194 5.27725,5.491 C5.06825,5.415 4.89725,5.32 4.84025,5.282 C4.65025,5.13 4.57425,4.94 4.70725,4.769 C5.46725,3.458 8.58325,2.964 10.00825,3.401 C9.87525,2.356 9.47625,1.216 8.81125,0 C7.12025,0.152 5.69525,0.475 4.53625,0.931 C3.37725,1.444 2.21825,2.242 1.09725,3.287 C0.47025,3.895 0.18525,4.598 0.16625,5.358 C0.16625,5.643 0.43225,6.004 1.00225,6.46 C1.81925,7.011 2.46525,7.467 2.92125,7.752 C3.87125,8.36 4.51725,8.835 4.91625,9.196 C5.56225,9.747 5.90425,10.26 5.92325,10.735 C5.46725,11.096 4.91625,11.286 4.30825,11.286 C3.79525,11.286 3.16825,11.153 2.50325,10.849 C1.59125,10.393 0.81225,9.994 0.18525,9.652 C0.09025,9.633 0.03325,9.652 0.01425,9.671 C-0.02375,10.336 0.01425,10.982 0.12825,11.666 C0.33725,13.015 0.79325,13.794 1.47725,14.022 C2.27525,14.25 3.26325,14.364 4.44125,14.364 C7.55725,14.364 9.41925,13.319 10.06525,11.191 C10.08425,11.096 10.10325,11.001 10.10325,10.887 Z" id="路径"></path>
                    <path d="M11.77525,0.665 C11.56625,0.684 11.45225,0.741 11.37625,0.969 C11.09125,2.071 10.82525,2.964 10.59725,3.895 C10.57825,3.99 10.71125,4.047 10.76825,4.028 L13.42825,3.686 C13.50425,4.256 13.37125,7.144 13.31425,9.443 C13.23825,11.723 12.97225,13.965 12.97225,13.965 C12.97225,13.965 12.68725,14.402 13.37125,14.383 C14.07425,14.345 16.90525,14.212 17.32325,13.775 C17.70325,13.395 17.13325,5.434 17.00025,3.116 C16.98125,3.04 17.00025,3.021 17.07625,3.021 L19.83125,2.774 C19.86925,2.774 19.88825,2.755 19.88825,2.698 C19.90725,1.995 19.90725,1.273 19.92625,0.551 C19.92625,0.418 19.90725,0.399 19.77425,0.399 C17.11425,0.494 14.41625,0.779 11.77525,0.665 Z" id="路径"></path>
                    <path d="M20.23025,13.699 C20.23025,13.718 20.24925,13.737 20.26825,13.737 C20.64825,13.756 24.03025,13.984 24.14425,14.003 C24.27725,14.022 24.39125,14.022 24.42925,13.87 C24.60025,13.186 25.17025,11.856 25.66425,10.488 C26.25325,10.45 28.13425,10.621 29.12225,10.64 C29.12225,10.716 29.14125,10.754 29.14125,10.811 C29.19825,11.134 29.55925,13.642 29.80625,13.984 C29.92025,14.136 34.11925,14.003 34.23325,13.984 C34.36625,13.946 34.32825,13.832 34.30925,13.699 C33.85325,10.165 32.44725,6.536 30.94625,3.192 C30.64225,2.508 30.37625,1.748 30.07225,1.121 C29.95825,0.874 29.92025,0.779 29.65425,0.741 C28.98925,0.646 26.46225,0.741 26.04425,0.76 C25.79725,0.76 25.79725,0.817 25.62625,1.045 C25.11325,1.729 23.85925,4.085 22.79525,6.65 C21.48425,9.785 20.34425,13.167 20.23025,13.699 Z M28.91325,8.113 C28.47625,8.151 26.34825,8.303 26.57625,7.41 C26.82325,6.536 27.43125,4.845 27.77325,4.864 C28.11525,4.902 28.83725,7.562 28.89425,7.885 C28.89425,7.923 28.89425,8.018 28.91325,8.113 Z" id="形状"></path>
                    <path d="M41.07325,4.845 C40.27525,3.534 39.02125,1.52 38.20425,0.399 C37.31125,0.532 35.48725,0.912 34.72725,1.824 C36.03825,4.237 37.55825,6.479 39.04025,8.341 C39.02125,8.759 39.00225,9.158 39.00225,9.557 C38.92625,11.837 38.66025,14.079 38.66025,14.079 C38.66025,14.079 38.37525,14.516 39.05925,14.497 C39.76225,14.459 42.59325,14.326 43.01125,13.889 C43.22025,13.68 43.14425,11.153 43.01125,8.531 C44.79725,6.213 46.16525,4.104 47.60925,1.9 C47.15325,1.083 45.29125,0.361 44.15125,0.209 C43.12525,1.615 41.68125,3.971 41.07325,4.845 Z" id="路径"></path>
                    <path d="M59.80725,7.961 C61.65025,7.752 63.03725,5.985 62.86625,4.256 C62.69525,1.995 61.30825,0.532 58.91425,0.589 L53.72725,0.703 L53.48025,13.965 C54.79125,14.231 56.72925,14.136 58.17325,14.041 C58.02125,12.692 57.98325,11.058 57.62225,9.766 C57.62225,9.481 59.88325,12.616 61.30825,14.25 C62.52425,14.098 64.55725,13.471 65.03225,12.749 C63.36025,11.134 61.49825,9.576 59.80725,7.961 Z M56.99525,3.002 C58.87625,2.888 59.29425,3.648 59.23725,4.484 C59.18025,5.491 57.92625,5.795 56.93825,5.909 L56.99525,3.002 Z" id="形状"></path>
                    <path d="M74.55125,10.925 C72.74625,11.248 71.56825,11.305 70.06725,11.229 C69.95325,10.412 69.95325,9.386 69.95325,8.55 C71.37825,8.626 72.36625,8.588 73.62025,8.493 C73.63925,7.885 73.71525,6.935 73.56325,6.213 C73.24025,6.232 72.17625,6.232 69.89625,6.251 L69.83925,3.876 C70.94125,3.629 72.42325,3.458 74.15225,3.439 C74.28525,2.907 74.38025,1.729 74.38025,0.684 C71.89125,0.665 68.18625,0.95 66.51425,1.254 C66.19125,5.092 65.79225,9.595 65.52625,13.623 C68.11025,14.25 72.46125,14.212 74.58925,14.022 C74.57025,13.262 74.72225,11.59 74.55125,10.925 Z" id="路径"></path>
                    <path d="M76.41325,0.399 C76.35625,1.026 75.46325,14.174 75.46325,14.174 C76.45125,14.383 84.14625,13.87 84.14625,13.87 C84.43125,13.091 84.41225,10.621 84.20325,9.842 C83.59525,9.861 80.08025,10.583 80.00425,10.374 C79.94725,10.184 79.83325,1.102 79.56725,0.855 C79.33925,0.627 77.57225,0.361 76.41325,0.399 Z" id="路径"></path>
                    <path d="M84.84925,13.699 C84.84925,13.718 84.86825,13.737 84.88725,13.737 C85.26725,13.756 88.64925,13.984 88.76325,14.003 C88.89625,14.022 89.01025,14.022 89.04825,13.87 C89.21925,13.186 89.78925,11.856 90.28325,10.488 C90.87225,10.45 92.75325,10.621 93.74125,10.64 C93.74125,10.716 93.76025,10.754 93.76025,10.811 C93.81725,11.134 94.17825,13.642 94.42525,13.984 C94.53925,14.136 98.73825,14.003 98.85225,13.984 C98.98525,13.946 98.94725,13.832 98.92825,13.699 C98.47225,10.165 97.06625,6.536 95.56525,3.192 C95.26125,2.508 94.99525,1.748 94.69125,1.121 C94.57725,0.874 94.53925,0.779 94.27325,0.741 C93.60825,0.646 91.08125,0.741 90.66325,0.76 C90.41625,0.76 90.41625,0.817 90.24525,1.045 C89.73225,1.729 88.47825,4.085 87.41425,6.65 C86.10325,9.785 84.96325,13.167 84.84925,13.699 Z M93.53225,8.113 C93.09525,8.151 90.96725,8.303 91.19525,7.41 C91.44225,6.536 92.05025,4.845 92.39225,4.864 C92.73425,4.902 93.45625,7.562 93.51325,7.885 C93.51325,7.923 93.51325,8.018 93.53225,8.113 Z" id="形状"></path>
                    <path d="M105.92025,10.317 C106.52825,11.115 107.97225,13.205 108.99825,14.459 C110.13825,14.326 112.00025,13.68 112.45625,12.958 C110.99325,10.963 109.91025,9.386 108.08625,7.296 C109.51125,5.415 110.46125,4.275 111.63925,2.261 C111.14525,1.444 109.16925,0.874 108.27625,0.76 C107.45925,1.767 106.39525,3.686 105.59725,4.864 C104.98925,4.085 103.81125,1.805 102.78525,0.551 C101.64525,0.684 99.76425,1.33 99.30825,2.052 C101.05625,4.389 102.02525,5.396 103.33625,7.258 C102.02525,9.177 100.92325,10.811 99.57425,13.015 C100.33425,13.832 102.15825,14.174 103.05125,14.288 C103.86825,13.281 105.12225,11.495 105.92025,10.317 Z" id="路径"></path>
                    <path d="M122.05125,10.925 C120.24625,11.248 119.06825,11.305 117.56725,11.229 C117.45325,10.412 117.45325,9.386 117.45325,8.55 C118.87825,8.626 119.86625,8.588 121.12025,8.493 C121.13925,7.885 121.21525,6.935 121.06325,6.213 C120.74025,6.232 119.67625,6.232 117.39625,6.251 L117.33925,3.876 C118.44125,3.629 119.92325,3.458 121.65225,3.439 C121.78525,2.907 121.88025,1.729 121.88025,0.684 C119.39125,0.665 115.68625,0.95 114.01425,1.254 C113.69125,5.092 113.29225,9.595 113.02625,13.623 C115.61025,14.25 119.96125,14.212 122.08925,14.022 C122.07025,13.262 122.22225,11.59 122.05125,10.925 Z" id="路径"></path>
                    <path d="M132.31125,2.85 C131.26625,1.729 129.93625,1.045 128.35925,0.798 C127.56125,0.665 126.06025,0.646 123.85625,0.779 C123.72325,1.824 123.55225,3.648 123.34325,6.27 C123.05825,9.633 122.94425,12.255 122.94425,14.155 C127.16225,14.231 130.12625,13.642 131.76025,12.407 C133.14725,11.381 133.86925,9.614 133.92625,7.163 C133.96425,5.472 133.43225,4.047 132.31125,2.85 Z M126.80125,9.937 C126.82025,6.004 126.83925,4.085 126.83925,3.895 C126.93425,3.876 127.04825,3.857 127.16225,3.857 C129.04325,3.857 130.71525,4.769 130.67725,6.897 C130.63925,9.006 129.53725,9.975 126.80125,9.937 Z" id="形状"></path>
                </g>
                <path d="M27,51 L113,51 C113.552285,51 114,51.4477153 114,52 L114,99 C114,105.627417 108.627417,111 102,111 L38,111 C31.372583,111 26,105.627417 26,99 L26,52 C26,51.4477153 26.4477153,51 27,51 Z" id="矩形备份-8" stroke="#F7F7FA" fill="url(#linearGradient-1)" stroke-linecap="round" stroke-linejoin="round"></path>
                <rect id="矩形备份-9" fill="#4A47FF" x="44" y="61" width="52" height="14" rx="4"></rect>
                <path d="M44,66 L45,66 C45.5522847,66 46,66.4477153 46,67 L46,69 C46,69.5522847 45.5522847,70 45,70 L44,70 L44,70 L44,66 Z" id="矩形备份-10" fill="#F0F0FF"></path>
                <rect id="1" fill="#4A47FF" x="44" y="81" width="52" height="14" rx="4"></rect>
                <path d="M44,86 L45,86 C45.5522847,86 46,86.4477153 46,87 L46,89 C46,89.5522847 45.5522847,90 45,90 L44,90 L44,90 L44,86 Z" id="矩形备份-12" fill="#F0F0FF"></path>
                <path d="M38,29 L102,29 C108.627417,29 114,34.372583 114,41 L114,45 L114,45 L26,45 L26,41 C26,34.372583 31.372583,29 38,29 Z" id="矩形备份-13" stroke="#F7F7FA" fill="#B8BBCC" stroke-linecap="round" stroke-linejoin="round"></path>
            </g>
        </g>
    </g>
</svg>