<?xml version="1.0" encoding="UTF-8"?>
<svg width="20px" height="20px" viewBox="0 0 20 20" version="1.1" xmlns="http://www.w3.org/2000/svg" xmlns:xlink="http://www.w3.org/1999/xlink">
    <title>切片</title>
    <g id="DO-IT" stroke="none" stroke-width="1" fill="none" fill-rule="evenodd">
        <g id="DOIT视觉规范" transform="translate(-46.000000, -559.000000)">
            <g id="doit-icon-my-schedule" transform="translate(46.000000, 559.000000)">
                <rect id="矩形" fill-opacity="0" fill="#FFFFFF" x="0" y="0" width="20" height="20"></rect>
                <path d="M10,5 C11.1045695,5 12,5.8954305 12,7 L8,7 C8,5.8954305 8.8954305,5 10,5 Z" id="形状结合" stroke="#373655" stroke-width="1.6" stroke-linecap="round" stroke-linejoin="round"></path>
                <path d="M6.3138158,4.41890604 L6.72339182,4.70569425 M10,2.5 L10,3 M13.6861842,4.41890604 L13.2766082,4.70569425" id="形状结合" stroke="#868CA3" stroke-width="1.6" stroke-linecap="round" stroke-linejoin="round"></path>
                <g id="编组" transform="translate(3.000000, 7.000000)" stroke="#373655" stroke-linecap="round" stroke-linejoin="round" stroke-width="1.6">
                    <rect id="矩形" x="0" y="0" width="14" height="11" rx="2"></rect>
                    <path d="M2,0 L12,0 C13.1045695,-2.02906125e-16 14,0.8954305 14,2 L14,3 L14,3 L0,3 L0,2 C-1.3527075e-16,0.8954305 0.8954305,2.02906125e-16 2,0 Z" id="矩形"></path>
                </g>
            </g>
        </g>
    </g>
</svg>