<?xml version="1.0" encoding="UTF-8"?>
<svg width="20px" height="20px" viewBox="0 0 20 20" version="1.1" xmlns="http://www.w3.org/2000/svg" xmlns:xlink="http://www.w3.org/1999/xlink">
    <title>切片</title>
    <g id="DO-IT" stroke="none" stroke-width="1" fill="none" fill-rule="evenodd">
        <g id="DOIT视觉规范-暗夜模式" transform="translate(-134.000000, -628.000000)">
            <g id="doit-icon-wastebasket-night" transform="translate(134.000000, 628.000000)">
                <path d="M4,6 L16,6 L15.2865943,15.1553732 C15.2054655,16.1965261 14.3369476,17 13.2926386,17 L6.70736136,17 C5.66305238,17 4.7945345,16.1965261 4.7134057,15.1553732 L4,6 L4,6 Z" id="矩形" stroke="#EBEDF5" stroke-width="2" stroke-linecap="round" stroke-linejoin="round"></path>
                <path d="M6,3 L14,3 L14,4 C14,4.55228475 13.5522847,5 13,5 L7,5 C6.44771525,5 6,4.55228475 6,4 L6,3 L6,3 Z" id="矩形" fill="#EBEDF5"></path>
                <path d="M6.31155281,3 L13.6884472,3 C14.6061825,3 15.4061487,3.62459475 15.6287322,4.51492875 L16,6 L16,6 L4,6 L4.37126781,4.51492875 C4.59385131,3.62459475 5.39381753,3 6.31155281,3 Z" id="矩形" stroke="#EBEDF5" stroke-width="2" stroke-linecap="round" stroke-linejoin="round"></path>
                <line x1="3" y1="6" x2="17" y2="6" id="直线" stroke="#EBEDF5" stroke-width="2" stroke-linecap="round" stroke-linejoin="round"></line>
            </g>
        </g>
    </g>
</svg>